<svg width="28" height="28" viewBox="0 0 28 28" fill="none" xmlns="http://www.w3.org/2000/svg">
<g clip-path="url(#clip0_69_18)">
<path fill-rule="evenodd" clip-rule="evenodd" d="M14.0003 0.583252C10.6768 0.584976 7.46216 1.76212 4.93136 3.9042C2.40055 6.04627 0.718564 9.0136 0.186145 12.2756C-0.346273 15.5376 0.305591 18.8815 2.02519 21.7095C3.74479 24.5374 6.41999 26.665 9.57243 27.7117C10.2679 27.8408 10.5299 27.4098 10.5299 27.0432C10.5299 26.6767 10.516 25.6141 10.5113 24.4523C6.61664 25.2937 5.79366 22.8088 5.79366 22.8088C5.15846 21.1953 4.24042 20.7711 4.24042 20.7711C2.97001 19.909 4.33548 19.9252 4.33548 19.9252C5.74266 20.0243 6.48219 21.3612 6.48219 21.3612C7.72942 23.4888 9.75789 22.8734 10.5554 22.5138C10.6806 21.6125 11.0445 20.9993 11.4456 20.6513C8.33448 20.3009 5.06572 19.1069 5.06572 13.7729C5.04644 12.3896 5.5627 11.0518 6.50769 10.0364C6.36396 9.68601 5.88407 8.27069 6.64446 6.34825C6.64446 6.34825 7.81983 5.97483 10.4951 7.7751C12.7898 7.15115 15.2109 7.15115 17.5055 7.7751C20.1785 5.97483 21.3515 6.34825 21.3515 6.34825C22.1142 8.26608 21.6344 9.6814 21.4906 10.0364C22.4386 11.052 22.956 12.3921 22.9349 13.7775C22.9349 19.123 19.6592 20.3009 16.5434 20.6444C17.0442 21.0777 17.4916 21.9237 17.4916 23.2237C17.4916 25.0862 17.4754 26.5845 17.4754 27.0432C17.4754 27.4144 17.7281 27.8477 18.4375 27.7117C21.5903 26.6648 24.2657 24.5369 25.9853 21.7085C27.7049 18.88 28.3564 15.5356 27.8234 12.2733C27.2904 9.01102 25.6075 6.04367 23.0759 3.90196C20.5443 1.76025 17.3289 0.583883 14.0049 0.583252H14.0003Z" fill="#A31818"/>
<path d="M5.30185 20.5707C5.27172 20.6399 5.16044 20.6606 5.07003 20.6122C4.97961 20.5638 4.91239 20.4739 4.94485 20.4025C4.9773 20.331 5.08626 20.3126 5.17667 20.361C5.26708 20.4094 5.33663 20.5016 5.30185 20.5707Z" fill="#A31818"/>
<path d="M5.86985 21.2C5.82184 21.224 5.76691 21.2308 5.71447 21.219C5.66203 21.2072 5.61534 21.1777 5.58239 21.1355C5.49197 21.0386 5.47342 20.9049 5.54297 20.845C5.61251 20.7851 5.73771 20.8127 5.82812 20.9096C5.91853 21.0064 5.9394 21.1401 5.86985 21.2Z" fill="#A31818"/>
<path d="M6.42161 21.9997C6.33583 22.0597 6.18977 21.9997 6.10863 21.8799C6.0862 21.8584 6.06836 21.8326 6.05617 21.8041C6.04398 21.7756 6.03769 21.7449 6.03769 21.7139C6.03769 21.6829 6.04398 21.6523 6.05617 21.6238C6.06836 21.5952 6.0862 21.5695 6.10863 21.548C6.19441 21.4903 6.34047 21.548 6.42161 21.6655C6.50275 21.7831 6.50507 21.9398 6.42161 21.9997Z" fill="#A31818"/>
<path d="M7.1704 22.7744C7.09389 22.8597 6.93857 22.8366 6.81107 22.7214C6.68356 22.6061 6.65342 22.4494 6.72992 22.3664C6.80642 22.2834 6.96175 22.3064 7.09389 22.4194C7.22603 22.5323 7.25154 22.6914 7.1704 22.7744Z" fill="#A31818"/>
<path d="M8.22053 23.2262C8.18575 23.3345 8.02811 23.383 7.87047 23.3369C7.71282 23.2907 7.6085 23.1617 7.63864 23.051C7.66878 22.9404 7.82874 22.8897 7.9887 22.9404C8.14866 22.9911 8.25066 23.1133 8.22053 23.2262Z" fill="#A31818"/>
<path d="M9.36581 23.3045C9.36581 23.4174 9.23599 23.5142 9.06907 23.5165C8.90216 23.5188 8.76538 23.4266 8.76538 23.3137C8.76538 23.2007 8.8952 23.1039 9.06211 23.1016C9.22903 23.0993 9.36581 23.1892 9.36581 23.3045Z" fill="#A31818"/>
<path d="M10.4322 23.1269C10.4531 23.2399 10.3372 23.3574 10.1703 23.3851C10.0033 23.4127 9.85729 23.3459 9.83643 23.2352C9.81556 23.1246 9.93611 23.0047 10.0984 22.9748C10.2607 22.9448 10.4114 23.014 10.4322 23.1269Z" fill="#A31818"/>
</g>
<defs>
<clipPath id="clip0_69_18">
<rect width="28" height="28" fill="white"/>
</clipPath>
</defs>
</svg>
