<svg width="28" height="28" viewBox="0 0 28 28" fill="none" xmlns="http://www.w3.org/2000/svg">
<g clip-path="url(#clip0_69_15)">
<path fill-rule="evenodd" clip-rule="evenodd" d="M19.6506 7.6384C18.205 6.25975 16.2759 5.5087 14.28 5.53956C10.6276 5.53956 7.52565 8.00362 6.41963 11.3216C5.83319 13.0604 5.83319 14.9432 6.41962 16.682H6.42476C7.53591 19.9948 10.6327 22.4589 14.2851 22.4589C16.1705 22.4589 17.7891 21.9767 19.0436 21.1249V21.1215C20.52 20.1441 21.5282 18.6059 21.842 16.8672H14.28V11.476H27.4852C27.6499 12.4123 27.727 13.3691 27.727 14.3208C27.727 18.579 26.2052 22.179 23.5574 24.6174L23.5602 24.6195C21.2401 26.7595 18.0558 27.9993 14.28 27.9993C8.98658 27.9993 4.14587 25.0156 1.76924 20.2881C-0.216419 16.3322 -0.216414 11.6715 1.76925 7.7156C4.14588 2.98292 8.98658 -0.000765541 14.28 -0.000765541C17.7575 -0.0419193 21.1167 1.26471 23.6476 3.64134L19.6506 7.6384Z" fill="#A31818"/>
</g>
<defs>
<clipPath id="clip0_69_15">
<rect width="28" height="28" fill="white"/>
</clipPath>
</defs>
</svg>
