<svg width="28" height="28" viewBox="0 0 28 28" fill="none" xmlns="http://www.w3.org/2000/svg">
<path d="M25.9273 0H2.06719C0.924219 0 0 0.902344 0 2.01797V25.9766C0 27.0922 0.924219 28 2.06719 28H25.9273C27.0703 28 28 27.0922 28 25.982V2.01797C28 0.902344 27.0703 0 25.9273 0ZM8.30703 23.8602H4.15078V10.4945H8.30703V23.8602ZM6.22891 8.67344C4.89453 8.67344 3.81719 7.59609 3.81719 6.26719C3.81719 4.93828 4.89453 3.86094 6.22891 3.86094C7.55781 3.86094 8.63516 4.93828 8.63516 6.26719C8.63516 7.59062 7.55781 8.67344 6.22891 8.67344ZM23.8602 23.8602H19.7094V17.3633C19.7094 15.8156 19.682 13.8195 17.5492 13.8195C15.3891 13.8195 15.0609 15.5094 15.0609 17.2539V23.8602H10.9156V10.4945H14.8969V12.3211H14.9516C15.5039 11.2711 16.8602 10.1609 18.8781 10.1609C23.0836 10.1609 23.8602 12.9281 23.8602 16.5266V23.8602Z" fill="#A71919"/>
</svg>
