<?xml version="1.0" standalone="no"?>
<!DOCTYPE svg PUBLIC "-//W3C//DTD SVG 20010904//EN"
 "http://www.w3.org/TR/2001/REC-SVG-20010904/DTD/svg10.dtd">
<svg version="1.0" xmlns="http://www.w3.org/2000/svg"
 width="1280.000000px" height="694.000000px" viewBox="0 0 1280.000000 694.000000"
 preserveAspectRatio="xMidYMid meet">
<metadata>
Created by potrace 1.15, written by Peter Selinger 2001-2017
</metadata>
<g transform="translate(0.000000,694.000000) scale(0.100000,-0.100000)"
fill="#000000" stroke="none">
<path d="M487 6913 c-20 -16 -52 -49 -72 -75 -20 -27 -47 -51 -61 -54 -17 -4
-31 -19 -40 -40 l-14 -34 -131 0 -130 0 -16 -37 c-23 -56 -24 -435 -1 -551 9
-46 22 -90 29 -98 10 -12 77 -14 420 -14 l409 0 0 -169 c0 -145 2 -171 17
-182 13 -12 301 -15 1747 -20 952 -3 1826 -10 1942 -14 l211 -8 27 -49 c16
-28 41 -64 56 -81 57 -66 106 -193 140 -362 11 -55 26 -123 34 -151 8 -28 19
-109 25 -180 6 -71 16 -151 21 -179 19 -106 21 -158 10 -247 l-12 -92 26 -23
27 -23 447 -1 c246 0 469 -4 497 -7 49 -7 51 -8 104 -87 55 -81 197 -385 264
-566 20 -52 51 -156 71 -231 50 -195 115 -314 269 -489 200 -227 475 -376 802
-435 136 -24 375 -24 510 0 334 60 632 235 817 480 77 102 128 205 143 286 81
438 113 535 209 633 62 63 104 81 218 96 97 13 268 -1 303 -24 40 -26 129
-121 161 -171 108 -169 159 -457 135 -769 -60 -775 -194 -1629 -373 -2380 -22
-93 -47 -197 -54 -230 -24 -100 4 -215 51 -215 13 0 39 -9 58 -20 48 -28 156
-49 257 -51 47 0 110 -5 140 -10 282 -48 1766 -44 2090 5 459 70 572 165 515
431 -8 39 -15 114 -15 168 0 199 -44 562 -160 1322 -97 632 -145 829 -307
1265 -67 179 -201 493 -213 498 -4 1 -22 31 -39 65 -37 73 -97 156 -184 252
-35 39 -83 99 -107 135 -24 36 -74 95 -112 133 -85 85 -153 170 -258 322 -66
96 -90 140 -116 219 -53 155 -64 227 -64 403 0 165 -10 225 -49 305 -34 72
-78 115 -149 150 l-67 33 -169 0 -170 0 -11 70 c-22 129 -92 234 -169 254 -24
6 -53 19 -64 28 -19 16 -20 23 -12 72 16 95 51 152 133 213 39 30 79 59 87 64
8 5 65 9 126 9 96 0 115 3 133 19 27 25 27 55 -2 97 -33 51 -97 79 -178 79
-81 0 -113 -16 -304 -144 -71 -48 -139 -89 -151 -92 -35 -9 -81 22 -123 85
-40 58 -84 101 -104 101 -5 0 -50 -16 -98 -36 -49 -19 -114 -40 -144 -47 l-55
-11 -101 102 c-159 161 -300 243 -419 245 -376 4 -4128 -5 -4136 -11 -6 -4
-29 -33 -52 -64 -23 -32 -51 -62 -61 -68 -13 -7 -525 -10 -1569 -10 -1755 0
-2392 7 -2392 25 0 23 -78 101 -126 127 -54 29 -107 49 -200 72 -81 21 -84 21
-127 -11z m252 -97 l44 -23 -39 -6 c-93 -16 -288 -4 -281 17 8 24 55 36 142
35 74 0 98 -4 134 -23z m8388 -16 c119 -15 177 -39 276 -113 120 -90 227 -208
329 -363 54 -82 125 -173 196 -249 61 -66 112 -124 112 -128 0 -14 -107 -192
-124 -207 -9 -7 -19 -10 -23 -7 -3 4 -19 55 -35 114 -16 59 -37 124 -47 143
-83 162 -107 203 -155 261 -30 37 -85 89 -122 115 -38 27 -88 70 -113 97 -45
46 -142 120 -229 173 l-42 26 -2020 3 c-1485 2 -2022 -1 -2029 -9 -5 -6 -11
-22 -13 -36 -3 -23 -8 -25 -55 -28 -42 -2 -56 1 -72 17 -22 22 -28 56 -11 66
5 3 25 30 45 59 19 29 45 57 57 63 15 6 256 11 663 12 352 1 641 3 642 4 1 1
606 1 1345 0 878 -2 1371 -6 1425 -13z m-8272 -80 c4 -7 -75 -10 -229 -10
-151 0 -236 4 -236 10 0 6 83 10 229 10 143 0 232 -4 236 -10z m288 -97 c-13
-2 -33 -2 -45 0 -13 2 -3 4 22 4 25 0 35 -2 23 -4z m2024 0 c-356 -2 -938 -2
-1295 0 -356 1 -64 2 648 2 712 0 1004 -1 647 -2z m1226 0 c-7 -2 -21 -2 -30
0 -10 3 -4 5 12 5 17 0 24 -2 18 -5z m1563 -25 c-22 -12 -57 -1 -37 11 7 5 22
6 33 3 18 -4 19 -6 4 -14z m3228 -11 c91 -42 169 -104 327 -259 129 -127 152
-155 203 -246 98 -176 111 -236 94 -460 -8 -113 -9 -113 -44 -144 -23 -21 -33
-36 -29 -48 6 -18 -19 -35 -36 -24 -12 7 -39 -20 -39 -39 0 -19 -26 -40 -40
-32 -5 3 -10 22 -10 41 0 29 -3 34 -22 34 -13 -1 -36 -12 -53 -25 -23 -19 -27
-27 -17 -37 15 -15 16 -54 1 -63 -6 -4 -13 3 -16 14 -4 17 -10 20 -27 15 -31
-10 -48 -25 -42 -41 3 -8 -2 -13 -14 -13 -11 0 -20 3 -20 8 0 9 -102 8 -118
-2 -7 -4 -10 -11 -7 -15 2 -5 -2 -17 -9 -27 -14 -18 -15 -18 -27 9 -15 33 -36
35 -49 3 -8 -23 -52 -42 -70 -31 -5 3 -11 1 -15 -5 -8 -13 -55 -13 -55 -1 0 5
-9 11 -20 13 -22 3 -24 24 -2 22 12 -2 -9 30 -30 47 -4 3 -9 18 -12 35 -2 16
-8 41 -14 55 -6 15 -15 53 -21 85 -6 32 -16 63 -21 68 -6 6 -10 172 -10 452 0
426 1 443 21 489 19 43 19 48 5 64 -22 24 -20 47 5 72 19 19 30 21 98 17 55
-3 93 -12 135 -31z m-4794 -15 c332 -5 515 -11 515 -17 0 -5 -31 -13 -70 -17
-93 -9 -4470 -11 -4641 -2 -127 7 -150 12 -121 31 6 4 210 10 452 13 547 6
3170 1 3865 -8z m6345 6 c41 -18 29 -24 -42 -20 -43 2 -92 -2 -132 -13 -68
-17 -87 -15 -49 7 66 38 170 50 223 26z m-2287 -8 c357 0 372 -1 372 -19 0
-13 -10 -20 -31 -25 -17 -3 -608 -6 -1313 -6 -984 0 -1285 3 -1294 12 -38 38
-36 38 681 41 380 2 809 2 952 0 143 -1 428 -3 633 -3z m-2660 -17 c78 -3 142
-9 142 -12 0 -3 -132 -6 -293 -6 -478 0 -657 4 -657 15 0 11 578 14 808 3z
m160 -61 c19 -14 -61 -17 -410 -14 -227 1 -447 5 -488 10 l-75 7 115 5 c98 4
850 -3 858 -8z m-1261 -8 l222 -6 6 -27 c3 -14 4 -58 3 -97 l-3 -72 -2385 2
c-2333 2 -2440 3 -2468 31 -4 3 -8 39 -10 79 -3 54 0 75 10 84 11 9 145 12
514 14 884 5 3882 -1 4111 -8z m3222 -6 c124 3 141 -3 141 -48 0 -36 -59 -90
-98 -90 l-27 1 28 15 c30 16 35 39 11 48 -9 3 -407 6 -885 6 l-869 0 0 25 c0
14 6 27 13 30 6 2 349 6 761 10 412 3 752 7 754 10 3 3 17 1 31 -3 14 -4 77
-6 140 -4z m-1963 -41 c2 -2 7 -94 11 -205 5 -156 3 -205 -7 -217 -9 -11 -32
-15 -86 -15 -68 0 -73 2 -76 23 l-3 22 -383 3 -382 2 -7 -31 c-6 -30 -7 -31
-47 -25 -23 4 -45 11 -51 17 -6 6 1 60 19 152 16 78 31 175 34 216 l5 74 485
-6 c266 -3 486 -8 488 -10z m4060 -76 c-12 -13 -16 -39 -16 -99 0 -85 -8 -98
-34 -60 -25 36 -21 75 19 186 4 10 10 10 26 2 19 -11 19 -13 5 -29z m-76 -37
c0 -27 -4 -43 -10 -39 -5 3 -10 24 -10 46 0 21 5 39 10 39 6 0 10 -21 10 -46z
m-1335 26 c-76 -12 -427 -12 -420 0 4 6 93 10 238 9 152 -1 215 -4 182 -9z
m1297 -25 c2 -19 1 -35 -2 -35 -11 0 -31 51 -25 61 12 19 23 8 27 -26z m458
10 c0 -3 -16 -38 -36 -77 l-36 -72 -49 51 c-27 28 -49 56 -49 60 0 18 66 42
118 42 28 1 52 -1 52 -4z m-1540 -45 c8 -5 11 -12 8 -16 -14 -13 -677 -23
-1573 -22 -906 0 -1038 3 -1033 23 2 7 302 10 874 10 719 0 874 -2 887 -14 14
-11 21 -10 46 5 27 18 58 19 403 21 213 1 379 -1 388 -7z m1284 4 c19 -7 21
-35 4 -52 -7 -7 -14 -47 -18 -90 l-5 -77 -22 23 c-20 19 -23 32 -23 100 0 94
14 115 64 96z m-8481 -51 c-7 -2 -21 -2 -30 0 -10 3 -4 5 12 5 17 0 24 -2 18
-5z m1027 -3 c-34 -11 -60 -11 -35 0 11 5 29 8 40 8 16 0 15 -2 -5 -8z m367 4
c-3 -3 -12 -4 -19 -1 -8 3 -5 6 6 6 11 1 17 -2 13 -5z m5776 -39 c35 -7 38
-10 35 -39 l-3 -31 -540 -6 c-297 -3 -790 -7 -1095 -8 -513 -1 -622 -6 -560
-26 32 -10 233 -12 246 -3 6 4 36 3 67 -3 40 -8 64 -8 86 -1 17 6 45 9 63 6
18 -3 414 -6 880 -7 465 -1 850 -6 855 -10 10 -10 11 -245 1 -269 -7 -16 -26
-18 -195 -18 -103 0 -246 -3 -316 -7 -121 -6 -128 -7 -125 -26 3 -20 9 -20
321 -18 l318 2 -3 -28 c-3 -26 -7 -28 -58 -35 -30 -3 -182 -6 -337 -7 -289 -1
-320 -5 -277 -39 16 -12 57 -13 245 -9 296 7 431 0 427 -22 -4 -23 -86 -28
-424 -30 -295 -1 -314 -4 -298 -45 6 -15 38 -16 365 -14 315 3 359 1 357 -12
-3 -13 -51 -16 -315 -24 -172 -5 -369 -5 -438 -1 l-126 7 66 60 c74 68 103
117 112 186 7 65 -12 126 -54 173 -71 79 5 73 -968 70 -785 -3 -872 -1 -884
13 -17 20 -6 82 15 90 9 3 80 6 158 6 135 0 206 11 206 31 0 5 -73 10 -162 10
-197 2 -222 6 -226 38 -2 13 1 28 8 35 7 7 117 13 353 16 509 7 2176 4 2220
-5z m-5004 -21 c7 -7 -2439 -2 -2834 6 -198 3 358 5 1235 2 877 -2 1597 -5
1599 -8z m6466 -48 c32 -35 55 -68 53 -73 -1 -4 -13 -7 -26 -5 -36 5 -40 -26
-7 -52 38 -30 29 -61 -12 -45 -39 15 -53 28 -53 53 0 12 -6 46 -14 76 -27 109
-27 110 -12 110 8 0 40 -29 71 -64z m-6027 47 c-26 -2 -71 -2 -100 0 -29 2 -8
3 47 3 55 0 79 -1 53 -3z m315 0 c-29 -2 -77 -2 -105 0 -29 2 -6 3 52 3 58 0
81 -1 53 -3z m5884 -173 c23 -10 49 -30 59 -45 17 -26 17 -28 -1 -41 -26 -19
-54 -17 -91 5 -28 17 -64 73 -64 100 0 14 37 6 97 -19z m-8731 -22 c5 -16 1
-27 -16 -40 -22 -18 -22 -18 -1 -18 20 0 21 -5 21 -97 0 -131 -4 -143 -45
-143 l-33 0 -6 73 c-3 39 -5 111 -5 160 l2 87 38 0 c30 0 39 -4 45 -22z m1774
12 c-31 -10 -1250 -10 -1345 0 -38 3 254 7 650 7 396 0 709 -3 695 -7z m400 0
c-84 -12 -252 -12 -245 0 4 6 64 9 153 9 113 -1 134 -4 92 -9z m525 -100 c215
-1 410 -5 435 -9 42 -7 40 -8 -40 -14 -121 -10 -3022 -4 -3038 6 -7 5 -10 13
-6 18 4 7 391 10 1110 8 608 -1 1107 1 1111 4 3 4 13 3 22 -2 9 -4 192 -9 406
-11z m-2842 -5 c3 -12 -501 -20 -553 -8 -29 6 -18 9 60 14 150 9 490 5 493 -6z
m4348 -5 l60 0 -3 -57 -3 -58 -270 -7 c-148 -4 -375 -5 -503 -1 -232 5 -234 6
-228 27 3 11 6 40 6 64 l0 43 415 -3 c228 -2 415 0 415 4 0 4 12 3 26 -2 14
-6 52 -10 85 -10z m4247 -10 c23 -17 42 -34 42 -39 0 -4 -15 -28 -34 -53 -28
-36 -73 -108 -154 -242 -3 -5 0 -6 5 -3 6 4 54 70 107 147 54 77 103 140 110
140 7 0 21 -6 31 -14 18 -13 17 -16 -15 -67 -112 -182 -171 -281 -168 -285 2
-2 51 66 108 152 58 86 108 157 111 160 4 2 48 -12 97 -31 93 -36 232 -65 308
-65 24 0 44 -2 44 -4 0 -2 -27 -50 -60 -105 -33 -55 -123 -221 -201 -368 -78
-148 -146 -274 -151 -280 -6 -7 -8 -13 -4 -13 11 0 91 130 186 305 51 94 128
229 171 301 44 73 79 139 79 147 0 18 21 27 63 27 67 0 67 -3 -58 -234 -64
-120 -115 -220 -112 -222 6 -6 95 136 167 269 30 53 57 97 61 97 4 0 13 16 19
35 6 19 18 35 26 35 10 0 -8 -44 -55 -137 -37 -76 -71 -149 -75 -163 l-7 -25
21 25 c11 14 45 72 75 130 30 58 65 118 78 134 23 28 24 28 55 12 18 -9 32
-23 32 -31 0 -8 -30 -71 -66 -140 -37 -69 -63 -129 -59 -133 11 -11 44 37 93
136 37 75 50 92 66 90 18 -3 20 -9 17 -58 -1 -30 -9 -86 -17 -123 -16 -79 -18
-123 -5 -132 10 -6 7 -95 -4 -147 -5 -21 -3 -28 9 -28 8 0 18 5 21 10 3 6 10
10 16 10 12 0 12 -37 -2 -45 -6 -5 -5 -11 5 -18 14 -10 14 -22 5 -76 -10 -62
-9 -65 15 -90 17 -18 27 -41 29 -69 3 -23 9 -47 15 -55 6 -7 20 -34 31 -60 11
-26 25 -47 31 -47 6 0 16 -11 22 -25 9 -20 16 -23 37 -19 23 6 24 5 9 -7 -26
-21 -12 -63 33 -99 25 -20 39 -39 39 -54 0 -26 19 -46 68 -70 24 -12 31 -22
27 -35 -4 -12 14 -36 60 -82 127 -126 137 -137 150 -175 12 -36 16 -39 49 -38
30 1 35 -2 35 -20 -1 -39 7 -57 32 -70 13 -7 23 -18 21 -24 -1 -7 6 -20 15
-30 10 -11 26 -33 35 -50 10 -19 25 -32 37 -32 13 0 26 -15 41 -46 13 -25 33
-55 45 -67 34 -33 88 -134 75 -142 -18 -11 -11 -27 9 -20 22 7 37 -13 45 -57
2 -14 11 -39 20 -56 9 -17 13 -38 10 -47 -5 -11 0 -18 15 -22 14 -3 18 -9 13
-17 -5 -6 -9 -28 -11 -48 -2 -33 0 -38 18 -38 17 0 21 -6 21 -36 0 -36 14 -73
34 -86 8 -6 7 -11 -3 -17 -11 -7 -9 -10 7 -15 23 -8 56 -79 53 -116 -1 -16 10
-41 29 -65 17 -21 29 -44 26 -52 -3 -7 -1 -15 4 -18 6 -4 10 -15 10 -26 0 -10
5 -19 10 -19 11 0 3 -74 -12 -102 -6 -13 -1 -22 21 -39 16 -12 27 -27 25 -34
-3 -7 -1 -16 5 -20 8 -4 8 -12 1 -26 -7 -11 -8 -43 -4 -77 3 -32 2 -73 -2 -92
-13 -52 -6 -108 14 -114 13 -5 18 -20 20 -73 2 -48 7 -71 18 -78 49 -31 48
-31 35 -64 -10 -23 -11 -34 -2 -45 6 -7 9 -21 5 -30 -8 -21 22 -115 45 -141
10 -11 18 -31 19 -44 0 -13 8 -52 17 -86 12 -48 14 -80 7 -134 -6 -48 -5 -74
2 -82 8 -8 7 -13 -3 -16 -11 -5 -11 -7 0 -14 11 -6 14 -38 12 -140 -2 -97 2
-141 12 -166 14 -32 13 -39 -4 -79 -13 -29 -16 -46 -9 -50 6 -4 8 -24 4 -51
-6 -48 -5 -49 48 -28 16 7 17 6 7 -13 -14 -26 -14 -125 0 -175 5 -20 6 -43 2
-50 -4 -6 -8 -49 -9 -94 0 -61 -5 -87 -16 -100 -9 -10 -18 -39 -20 -65 -2 -25
-9 -52 -15 -60 -6 -7 -14 -23 -18 -36 -4 -13 -10 -21 -13 -18 -3 4 -22 -10
-43 -30 -36 -35 -96 -53 -109 -33 -8 12 -82 -40 -75 -52 4 -5 1 -9 -5 -9 -7 0
-10 6 -7 13 21 51 22 49 -22 26 -27 -14 -50 -19 -66 -15 -15 4 -25 2 -25 -4 0
-6 -16 -10 -37 -9 -21 1 -53 -5 -70 -15 -18 -9 -33 -12 -33 -6 0 16 -30 12
-36 -5 -4 -9 -19 -15 -38 -15 -17 0 -49 -5 -71 -11 -22 -6 -58 -12 -81 -13
-22 -1 -51 -10 -64 -19 -30 -21 -44 -22 -36 -2 8 21 -6 19 -45 -8 -25 -17 -45
-22 -70 -19 -20 2 -53 -1 -75 -7 -21 -6 -42 -7 -47 -2 -5 5 -25 5 -45 0 -20
-5 -45 -9 -54 -9 -28 0 -21 27 10 38 21 8 4 11 -83 12 -60 1 -114 1 -120 0 -5
-1 -40 -3 -77 -4 -46 -1 -68 3 -68 11 0 20 -24 20 -52 0 -25 -19 -28 -19 -71
-2 -40 15 -47 15 -81 1 -20 -8 -34 -11 -31 -6 14 23 -26 8 -41 -15 -9 -14 -24
-25 -33 -25 -14 0 -14 2 -1 10 11 7 4 10 -27 10 -23 0 -45 5 -48 10 -4 7 -26
8 -57 4 -36 -5 -49 -4 -44 4 11 18 -12 23 -46 9 -19 -8 -43 -10 -58 -6 -14 4
-71 7 -127 8 -84 1 -108 5 -137 22 -31 18 -45 20 -110 14 l-75 -7 -40 41 c-22
23 -45 41 -51 41 -5 0 -10 6 -10 14 0 8 -11 17 -24 20 -36 9 -41 34 -9 43 24
5 25 7 8 13 -26 9 -28 41 -3 67 12 13 18 23 14 23 -5 0 -2 8 5 17 12 15 12 16
-4 10 -15 -5 -16 -4 -7 13 14 25 13 27 -11 33 -18 5 -20 10 -14 34 4 15 9 48
12 73 3 25 8 47 12 50 16 11 33 98 23 116 -7 13 -5 30 9 62 11 24 16 48 13 54
-3 5 4 20 16 33 12 13 19 28 15 34 -3 6 0 14 9 17 13 5 13 10 -1 41 -8 20 -12
44 -10 55 4 12 0 18 -11 18 -14 1 -14 3 3 16 11 8 20 20 21 27 0 7 2 14 3 17
2 3 4 28 6 55 5 65 10 94 23 125 7 18 6 32 -4 53 -13 24 -13 27 1 27 17 0 19
9 6 29 -7 10 -1 23 20 43 16 16 29 38 29 48 0 10 5 22 10 25 15 9 12 35 -5 35
-8 0 -19 -9 -25 -21 -23 -42 -18 -11 10 71 19 58 30 110 32 162 2 43 7 78 12
78 4 0 5 7 2 16 -4 9 0 24 7 33 17 19 28 71 16 71 -20 0 -19 50 2 106 13 32
22 69 20 82 -1 13 3 30 9 37 7 8 10 24 7 35 -3 10 -1 47 4 82 19 141 36 316
34 358 -1 25 2 50 6 55 10 13 7 125 -4 142 -4 6 -4 14 1 17 5 3 5 36 0 73 -5
37 -7 102 -6 143 2 46 -1 75 -7 74 -5 -1 -19 8 -29 19 -19 20 -19 20 4 14 14
-4 29 0 38 10 15 15 14 15 -16 11 -30 -4 -31 -3 -17 13 15 15 14 17 -10 23
-30 8 -34 43 -9 82 16 24 16 26 -5 40 -14 10 -21 26 -21 48 0 19 -7 39 -15 46
-8 7 -13 15 -10 19 2 4 -3 20 -11 35 -7 16 -14 34 -14 41 0 7 -10 20 -22 28
-19 13 -20 16 -6 16 21 1 13 31 -9 31 -8 0 -11 -4 -8 -10 14 -22 -16 -8 -31
15 -16 24 -16 57 0 55 14 -3 24 20 18 42 -2 10 -31 37 -63 58 -32 22 -61 44
-64 50 -3 5 -15 10 -26 10 -10 0 -19 4 -19 9 0 5 -13 12 -30 16 -16 4 -30 11
-30 16 0 5 12 7 28 4 18 -4 13 0 -17 14 -46 22 -76 27 -66 11 3 -5 1 -10 -4
-10 -6 0 -11 4 -11 9 0 4 -40 11 -89 14 -48 4 -95 9 -102 12 -8 3 -24 -2 -34
-12 -11 -10 -59 -31 -108 -46 -112 -36 -162 -84 -230 -216 -41 -80 -47 -100
-47 -154 0 -49 -5 -68 -26 -98 -24 -36 -38 -91 -62 -260 -12 -85 -73 -236
-128 -320 -82 -125 -245 -260 -417 -348 -332 -169 -756 -195 -1122 -70 -83 29
-227 100 -305 150 -85 55 -251 223 -319 323 -58 84 -121 216 -121 254 0 12 -4
22 -9 22 -5 0 -7 9 -4 21 3 11 -4 42 -15 67 -11 26 -48 126 -82 222 -65 183
-230 547 -277 609 -19 24 -26 45 -24 64 1 16 -5 61 -15 98 -15 57 -16 75 -6
102 7 19 12 63 12 100 l0 67 285 0 c157 0 285 -3 285 -7 0 -5 -19 -37 -43 -73
-23 -36 -53 -83 -65 -105 -22 -37 -20 -36 25 15 81 92 163 174 169 168 7 -7
-9 -33 -101 -163 -123 -173 -97 -153 66 51 102 129 98 127 268 118 58 -3 135
-1 171 4 37 6 70 6 76 1 6 -5 19 -1 32 12 17 15 34 19 67 18 24 -2 48 0 51 4
4 4 -323 7 -727 7 -404 0 -933 3 -1177 7 -442 6 -443 6 -440 27 2 13 9 19 18
17 8 -2 800 -5 1760 -7 960 -3 1787 -7 1839 -10 133 -9 95 -24 -59 -24 -69 0
-162 -3 -208 -7 -69 -5 -81 -8 -70 -19 10 -10 74 -15 244 -20 201 -6 233 -5
255 9 13 9 64 21 113 27 49 6 98 16 109 21 10 6 51 20 91 31 104 28 221 87
300 149 161 126 184 157 246 339 18 52 41 111 51 131 10 20 28 83 39 140 20
96 26 112 85 199 69 104 110 180 97 180 -12 0 -56 -50 -79 -90 -11 -19 -32
-57 -47 -83 -20 -36 -31 -46 -39 -38 -15 15 159 271 183 271 9 0 36 -14 58
-30z m-5430 -56 c163 -6 185 -12 149 -42 -17 -15 -1993 -25 -2637 -15 l-475 8
0 25 0 25 420 5 c497 7 2310 2 2543 -6z m-3203 -2 c24 -5 41 -13 43 -23 4 -24
-61 -29 -355 -29 -243 0 -253 1 -263 20 -6 11 -8 25 -5 30 7 12 517 13 580 2z
m6475 -42 l75 -5 -75 -7 c-41 -4 -379 -10 -751 -13 -661 -6 -1009 -1 -1009 16
0 5 78 10 173 11 306 5 1510 3 1587 -2z m-387 -69 c426 -1 519 -7 400 -28 -64
-11 -1743 -10 -1768 1 l-20 8 20 8 c11 5 142 9 290 10 149 1 308 5 355 8 47 4
128 4 180 1 52 -4 296 -7 543 -8z m-150 -75 c301 -2 551 -6 554 -10 10 -10
-20 -38 -62 -57 -38 -17 -89 -19 -876 -19 -905 0 -865 -2 -857 52 3 20 11 24
58 30 30 3 152 5 272 3 120 -2 218 0 218 4 0 5 33 7 73 5 39 -2 319 -5 620 -8z
m-1488 -45 c10 -46 -4 -79 -40 -97 -29 -13 -97 -16 -491 -17 l-458 -2 -48 60
c-26 32 -48 65 -48 72 0 11 104 13 539 13 l539 0 7 -29z m190 -15 c17 -12 18
-28 12 -308 -4 -162 -4 -323 -1 -359 l6 -65 1318 1 c725 0 1321 -3 1325 -7 4
-4 5 -14 2 -23 -6 -13 -152 -15 -1391 -15 l-1386 0 -17 27 c-16 24 -18 62 -21
382 -2 195 -1 360 2 368 7 18 126 18 151 -1z m1733 -81 c6 -3 12 -9 12 -15 0
-11 -1635 -15 -1664 -4 -45 17 18 23 256 24 144 0 263 2 264 3 5 4 1118 -4
1132 -8z m-111 -79 c4 -3 -179 -6 -405 -6 -227 0 -412 3 -412 8 0 8 808 7 817
-2z m123 4 c0 -5 -15 -10 -32 -9 -28 0 -30 2 -13 9 28 12 45 12 45 0z m410 -2
c0 -10 -327 -11 -333 0 -3 4 71 7 164 8 93 0 169 -3 169 -8z m253 5 c-7 -2
-19 -2 -25 0 -7 3 -2 5 12 5 14 0 19 -2 13 -5z m-1278 -62 c-225 -4 -513 -3
-640 0 -128 3 54 5 410 5 571 0 596 -1 230 -5z m553 2 c-10 -2 -28 -2 -40 0
-13 2 -5 4 17 4 22 1 32 -1 23 -4z m89 1 c-3 -3 -12 -4 -19 -1 -8 3 -5 6 6 6
11 1 17 -2 13 -5z m150 0 c-3 -3 -12 -4 -19 -1 -8 3 -5 6 6 6 11 1 17 -2 13
-5z m500 0 c-3 -3 -12 -4 -19 -1 -8 3 -5 6 6 6 11 1 17 -2 13 -5z m983 -4 c0
-5 -4 -10 -10 -10 -5 0 -10 5 -10 10 0 6 5 10 10 10 6 0 10 -4 10 -10z m-3980
-21 c-47 -4 -146 -7 -220 -7 -74 0 -173 3 -220 7 -57 5 17 8 220 8 203 0 277
-3 220 -8z m1077 -25 c-3 -3 -12 -4 -19 -1 -8 3 -5 6 6 6 11 1 17 -2 13 -5z
m240 0 c-3 -3 -12 -4 -19 -1 -8 3 -5 6 6 6 11 1 17 -2 13 -5z m461 1 c-10 -11
-359 -15 -353 -5 4 6 76 10 182 10 97 0 174 -2 171 -5z m179 -1 c-3 -3 -12 -4
-19 -1 -8 3 -5 6 6 6 11 1 17 -2 13 -5z m256 -1 c-29 -2 -77 -2 -105 0 -29 2
-6 3 52 3 58 0 81 -1 53 -3z m220 0 c-7 -2 -19 -2 -25 0 -7 3 -2 5 12 5 14 0
19 -2 13 -5z m90 0 c-7 -2 -19 -2 -25 0 -7 3 -2 5 12 5 14 0 19 -2 13 -5z
m144 0 c-20 -2 -52 -2 -70 0 -17 2 0 4 38 4 39 0 53 -2 32 -4z m-2397 -33
c-34 -11 -770 -12 -770 -1 0 5 176 9 398 9 220 0 386 -3 372 -8z m1210 -16 c0
-2 -35 -3 -77 -2 l-78 1 60 6 c56 6 95 3 95 -5z m-330 2 c0 -2 -7 -6 -15 -10
-8 -3 -15 -1 -15 4 0 6 7 10 15 10 8 0 15 -2 15 -4z m117 -2 c-3 -3 -12 -4
-19 -1 -8 3 -5 6 6 6 11 1 17 -2 13 -5z m441 -1 c-10 -2 -28 -2 -40 0 -13 2
-5 4 17 4 22 1 32 -1 23 -4z m-1430 -49 c51 -4 92 -10 92 -13 0 -10 -843 0
-860 9 -18 11 628 13 768 4z m-93 -53 l190 -6 3 -44 c2 -24 -1 -48 -6 -53 -10
-10 -518 -10 -722 1 l-124 6 -14 37 c-27 69 -31 68 240 67 134 -1 329 -4 433
-8z m2172 -149 c48 -19 50 -26 26 -77 -19 -40 -46 -48 -41 -12 l3 22 -845 2
c-916 2 -871 -1 -856 56 l6 27 333 2 c182 2 557 1 832 0 438 -3 505 -6 542
-20z m-2069 2 l93 -6 -3 -52 -3 -51 -403 1 c-442 0 -415 -4 -428 61 -13 69
-29 66 329 59 177 -3 364 -9 415 -12z m-73 -150 l150 -6 25 -55 25 -55 970 7
c945 6 1755 -2 1560 -16 -49 -4 -822 -7 -1717 -8 -1615 -1 -1628 -1 -1648 19
-23 23 -29 114 -7 124 13 5 386 0 642 -10z m361 -257 c13 -13 14 -74 1 -91
-13 -18 -35 -19 -490 -20 -261 -1 -477 1 -480 4 -2 3 -7 32 -9 64 l-5 59 490
-6 c269 -3 491 -8 493 -10z m5204 -68 c0 -6 -4 -7 -10 -4 -5 3 -10 11 -10 16
0 6 5 7 10 4 6 -3 10 -11 10 -16z m-5213 -164 c3 -9 2 -19 -2 -23 -3 -4 -220
-8 -481 -10 -457 -3 -474 -2 -474 16 0 10 3 22 7 25 3 4 217 7 475 7 413 0
469 -2 475 -15z m3643 -395 c0 -5 -2 -10 -4 -10 -3 0 -8 5 -11 10 -3 6 -1 10
4 10 6 0 11 -4 11 -10z m107 -66 c-3 -3 -12 -4 -19 -1 -8 3 -5 6 6 6 11 1 17
-2 13 -5z m66 -45 c10 -11 17 -30 15 -40 -3 -18 -8 -15 -43 20 -38 40 -38 41
-14 41 13 0 33 -9 42 -21z"/>
<path d="M10699 5497 c-85 -143 -259 -479 -236 -457 8 8 49 75 91 148 42 72
109 189 149 260 82 142 90 159 78 167 -5 3 -42 -50 -82 -118z"/>
<path d="M10265 5551 c-71 -18 -128 -66 -141 -117 -3 -12 -1 -47 6 -77 17 -81
74 -127 158 -127 55 1 143 48 167 90 38 67 18 178 -39 215 -28 19 -109 27
-151 16z m70 -61 c3 -5 -10 -33 -30 -61 -35 -51 -40 -74 -17 -74 6 0 28 24 49
54 21 30 43 56 50 58 17 6 45 -54 37 -80 -16 -53 -80 -97 -141 -97 -49 0 -78
21 -93 66 -14 43 -7 77 22 104 34 31 111 50 123 30z"/>
<path d="M9990 5368 c-17 -23 -50 -76 -72 -118 -23 -41 -87 -154 -143 -250
-129 -220 -186 -333 -156 -306 11 11 21 23 21 27 0 5 24 46 54 93 93 143 322
539 329 569 10 37 2 34 -33 -15z"/>
<path d="M10818 5179 c-33 -42 -110 -200 -102 -208 10 -11 52 51 80 118 15 36
34 74 42 83 8 9 12 22 10 29 -3 8 -15 -2 -30 -22z"/>
<path d="M10595 5160 c-3 -5 -1 -10 4 -10 6 0 11 5 11 10 0 6 -2 10 -4 10 -3
0 -8 -4 -11 -10z"/>
<path d="M10610 5038 c-12 -22 -12 -22 6 -6 10 10 15 20 12 24 -4 3 -12 -5
-18 -18z"/>
<path d="M10570 4970 c-6 -12 -9 -24 -7 -27 3 -2 11 5 17 17 6 12 9 24 7 27
-3 2 -11 -5 -17 -17z"/>
<path d="M10420 4724 c-35 -58 -81 -129 -102 -157 -38 -51 -49 -82 -25 -75 6
3 28 25 47 51 38 50 160 261 160 277 0 26 -20 1 -80 -96z"/>
<path d="M7805 4660 c-16 -4 -69 -5 -117 -2 -47 3 -94 2 -105 -2 -17 -7 -17
-8 1 -18 10 -6 61 -13 112 -17 l94 -6 -76 -110 c-74 -107 -109 -165 -100 -165
2 0 52 63 110 139 59 77 114 142 122 145 25 9 98 7 114 -4 13 -9 13 -12 -3
-21 -9 -5 -26 -27 -36 -48 -11 -20 -36 -57 -55 -80 -40 -48 -41 -51 -23 -51 6
0 25 20 40 44 15 25 45 62 65 83 20 22 49 54 65 71 24 29 31 32 66 26 24 -4
41 -2 45 5 5 8 -27 11 -112 11 -66 0 -132 2 -148 4 -16 2 -42 1 -59 -4z"/>
<path d="M7988 4513 c-73 -99 -95 -131 -127 -188 l-23 -40 37 40 c40 43 183
238 192 261 14 37 -20 6 -79 -73z"/>
<path d="M7854 4535 c-15 -20 -24 -38 -21 -41 4 -5 30 27 51 64 15 25 -4 11
-30 -23z"/>
<path d="M7040 4545 c-8 -9 -8 -15 -2 -15 12 0 26 19 19 26 -2 2 -10 -2 -17
-11z"/>
<path d="M10751 4368 c-75 -37 -97 -100 -66 -189 19 -52 47 -84 97 -110 75
-39 154 -15 205 60 46 69 19 197 -51 241 -46 28 -127 27 -185 -2z m132 -39
c30 -14 53 -48 35 -54 -24 -7 -144 -25 -170 -25 -21 0 -25 4 -21 20 7 28 27
42 81 56 26 7 48 13 49 13 1 1 13 -4 26 -10z m56 -160 c-16 -40 -46 -59 -92
-59 -31 0 -46 7 -73 34 -55 55 -46 64 76 73 53 4 78 11 85 22 16 25 19 -34 4
-70z"/>
<path d="M7370 4180 c-220 -14 -353 -40 -449 -90 -59 -30 -175 -120 -192 -148
-8 -15 -30 -51 -48 -81 -96 -161 -80 -412 43 -675 47 -99 61 -119 120 -172 36
-32 78 -76 93 -96 14 -21 31 -38 38 -38 6 0 22 -11 35 -25 31 -33 214 -143
349 -210 105 -52 187 -82 226 -83 11 -1 65 -6 120 -12 122 -14 322 -7 430 15
175 36 401 151 507 258 152 152 265 327 254 391 -3 17 -6 87 -7 156 -2 129
-13 177 -49 215 -10 11 -31 39 -47 62 -15 23 -66 72 -112 110 -88 72 -91 74
-131 92 -24 11 -81 48 -108 71 -7 6 -17 8 -22 5 -6 -3 -10 -1 -10 4 0 6 -12
11 -27 11 -16 0 -48 14 -73 31 -65 43 -117 70 -180 90 -30 9 -82 27 -114 39
-60 22 -371 79 -461 85 -27 2 -111 -1 -185 -5z m195 -105 c87 -11 83 -7 82
-93 0 -80 8 -107 47 -152 13 -14 38 -50 57 -80 32 -51 34 -60 34 -140 -1 -73
-5 -95 -33 -162 -44 -102 -83 -159 -165 -241 -66 -67 -166 -127 -212 -127 -11
0 -39 -9 -62 -20 -59 -26 -68 -63 -25 -101 17 -15 50 -34 73 -40 37 -12 49
-11 105 9 173 60 319 194 409 372 30 60 45 103 90 264 13 45 28 70 69 112 35
36 60 54 77 54 59 0 199 92 199 130 0 48 58 29 235 -77 98 -58 141 -100 182
-178 89 -169 85 -378 -11 -537 -81 -134 -190 -232 -353 -316 -113 -58 -174
-77 -293 -92 -47 -6 -105 -15 -130 -21 -55 -12 -104 -3 -335 65 -309 90 -507
209 -653 390 -115 143 -169 256 -192 398 -22 135 1 215 113 393 38 60 51 73
93 89 27 11 79 32 115 47 40 17 100 32 155 39 159 19 249 27 264 24 8 -1 38
-5 65 -9z m136 -852 c-20 -36 -111 -125 -111 -109 0 8 110 126 117 126 2 0 -1
-8 -6 -17z m-176 -163 c-16 -17 -47 -39 -70 -50 -42 -20 -105 -27 -105 -11 0
10 34 21 65 21 12 0 45 16 75 35 67 42 71 43 35 5z"/>
<path d="M11340 3998 c-36 -9 -119 -44 -186 -77 -175 -87 -224 -95 -359 -61
-148 38 -260 19 -331 -55 -36 -37 -42 -50 -49 -106 -4 -35 -6 -192 -4 -349 4
-353 3 -361 -21 -765 -36 -591 -59 -849 -110 -1230 -16 -121 -34 -267 -40
-325 -6 -58 -21 -151 -32 -207 -18 -88 -20 -109 -9 -144 13 -43 27 -42 33 1 6
50 25 27 42 -52 4 -15 19 -39 34 -53 21 -20 37 -25 79 -25 28 0 54 -4 57 -9 4
-6 20 -5 42 0 19 6 49 7 66 4 43 -10 225 -15 713 -19 256 -2 430 -7 432 -13 4
-10 -133 -27 -362 -44 -162 -12 -347 -6 -541 17 -67 8 -159 14 -205 13 -201
-3 -299 23 -348 89 -24 33 -36 24 -27 -22 9 -49 74 -106 124 -107 20 -1 53 -4
72 -6 69 -7 235 -9 245 -3 6 4 42 3 80 -1 108 -13 297 -31 325 -31 114 -2 421
16 490 29 86 16 188 13 200 -6 4 -7 18 -7 44 0 26 7 41 7 50 0 9 -8 29 -8 66
-1 29 5 94 10 144 10 116 1 280 23 301 40 34 28 58 93 59 157 1 66 -4 79 -29
70 -11 -5 -15 -21 -15 -61 0 -50 -3 -56 -32 -77 -18 -12 -40 -30 -48 -40 -22
-26 -113 -39 -321 -46 -192 -6 -239 -2 -239 21 0 16 43 20 340 37 113 6 213
15 222 20 10 5 24 22 33 38 13 26 13 54 0 242 -53 767 -156 1382 -321 1919
-112 360 -215 640 -264 710 -10 14 -21 36 -25 49 -4 14 -23 49 -42 78 -19 30
-37 71 -40 91 -15 98 -96 191 -190 218 -50 15 -55 14 -121 -10 -105 -37 -191
-80 -247 -120 -45 -33 -56 -36 -115 -36 -36 0 -103 10 -150 22 -108 27 -227
29 -265 4 -56 -37 -57 -51 -66 -551 -7 -436 -15 -627 -39 -915 -18 -212 -90
-944 -95 -967 -3 -12 -17 -106 -30 -208 -24 -172 -52 -322 -54 -283 -1 10 19
176 44 370 118 937 139 1242 140 2043 1 220 5 336 12 349 7 13 8 28 1 47 -21
60 23 126 101 154 55 19 111 19 203 -1 78 -16 174 -20 229 -10 19 4 97 39 174
77 116 58 153 72 213 80 56 6 81 5 106 -5 30 -12 122 -116 169 -188 19 -30 47
-37 47 -13 0 48 -110 190 -141 182 -11 -3 -27 7 -45 30 -22 28 -33 34 -53 30
-14 -3 -33 0 -41 7 -12 10 -28 9 -80 -6z m90 -143 c10 -12 10 -21 2 -40 -15
-32 -30 -32 -38 0 -12 46 11 71 36 40z m-75 -15 c8 -26 -4 -48 -16 -29 -12 19
-11 49 0 49 5 0 12 -9 16 -20z m149 -17 c10 -24 -2 -29 -19 -7 -8 10 -15 22
-15 26 0 13 28 -3 34 -19z m-174 -74 c0 -16 -4 -29 -10 -29 -15 0 -40 55 -40
87 l1 28 24 -28 c15 -16 25 -40 25 -58z m-84 35 c9 -36 -12 -56 -32 -30 -21
29 -18 56 6 56 13 0 22 -9 26 -26z m236 1 c14 -30 -1 -90 -22 -90 -18 0 -24
35 -15 81 7 40 21 44 37 9z m88 -61 c0 -12 -4 -25 -9 -29 -14 -8 -31 29 -31
67 l1 33 19 -24 c11 -13 20 -34 20 -47z m-172 17 c3 -16 -1 -22 -10 -19 -7 3
-15 15 -16 27 -3 16 1 22 10 19 7 -3 15 -15 16 -27z m-258 -14 c0 -30 -10 -40
-27 -26 -20 18 -16 49 7 49 14 0 20 -7 20 -23z m70 -6 c15 -37 3 -63 -17 -36
-15 21 -18 65 -4 65 5 0 14 -13 21 -29z m-505 11 c6 -4 11 -27 13 -51 3 -32 0
-42 -10 -39 -7 3 -13 18 -13 34 0 20 -6 31 -19 34 -29 8 -32 30 -4 30 13 0 28
-4 33 -8z m88 -21 c8 -8 -8 -61 -18 -61 -4 0 -35 67 -35 77 0 6 43 -7 53 -16z
m495 -6 c14 -30 16 -72 3 -79 -12 -8 -45 70 -38 88 9 23 22 19 35 -9z m-708
-47 c0 -10 -4 -18 -10 -18 -15 0 -32 40 -25 58 6 15 8 15 21 -2 8 -11 14 -28
14 -38z m356 37 c4 -8 3 -23 -1 -32 -6 -16 -8 -15 -20 7 -7 14 -11 28 -9 32 8
13 24 9 30 -7z m-76 -5 c0 -5 -4 -10 -10 -10 -5 0 -10 5 -10 10 0 6 5 10 10
10 6 0 10 -4 10 -10z m170 -31 c0 -11 -4 -19 -10 -19 -13 0 -32 38 -25 51 10
14 35 -9 35 -32z m80 -36 c0 -13 -5 -23 -10 -23 -16 0 -44 66 -36 86 6 16 9
14 26 -11 11 -17 20 -40 20 -52z m420 58 c14 -26 13 -98 -2 -107 -16 -10 -38
25 -38 62 0 60 20 82 40 45z m-870 -37 c0 -7 -4 -15 -9 -19 -14 -8 -34 33 -26
53 6 15 8 15 21 -2 8 -11 14 -25 14 -32z m710 16 c0 -16 -4 -30 -9 -30 -10 0
-22 40 -15 52 11 18 24 6 24 -22z m-180 -47 c0 -37 -14 -43 -30 -14 -11 22
-13 64 -3 74 11 12 32 -27 33 -60z m256 42 c10 -40 -1 -52 -20 -23 -17 26 -15
48 4 48 5 0 12 -11 16 -25z m177 -18 c14 -28 16 -41 7 -57 -6 -11 -15 -20 -19
-20 -14 0 -42 81 -35 102 8 27 26 18 47 -25z m-788 -6 c7 -23 -12 -74 -25 -66
-18 11 -9 85 10 85 5 0 11 -8 15 -19z m70 -5 c15 -22 12 -56 -5 -56 -11 0 -28
52 -23 68 6 17 10 15 28 -12z m83 -3 c20 -54 21 -61 8 -78 -11 -16 -14 -14
-29 18 -18 36 -22 69 -10 80 12 13 21 7 31 -20z m-230 -34 c-5 -35 -28 -36
-28 -1 0 16 3 32 7 36 11 11 25 -10 21 -35z m500 29 c7 -7 12 -23 12 -37 0
-22 -2 -23 -14 -11 -31 33 -29 79 2 48z m-698 -48 c0 -10 -7 -23 -15 -30 -8
-7 -16 -27 -16 -44 -1 -26 -3 -23 -11 17 -13 60 3 107 27 87 8 -7 15 -20 15
-30z m70 -12 c0 -10 -4 -18 -9 -18 -11 0 -21 25 -21 53 1 22 1 22 15 3 8 -11
15 -28 15 -38z m446 16 c18 -44 1 -66 -20 -26 -9 17 -16 38 -16 47 0 26 23 12
36 -21z m274 -5 c0 -10 -4 -20 -9 -24 -14 -8 -29 24 -23 47 3 14 7 16 18 7 8
-6 14 -20 14 -30z m80 -18 c0 -9 -4 -22 -9 -30 -13 -19 -31 17 -31 61 l1 33
19 -24 c11 -13 20 -31 20 -40z m-753 27 c-3 -8 -6 -5 -6 6 -1 11 2 17 5 13 3
-3 4 -12 1 -19z m923 -79 c0 -19 -6 -44 -14 -54 -13 -18 -14 -18 -26 6 -15 27
-18 94 -7 124 7 18 9 17 27 -10 11 -17 20 -46 20 -66z m-105 50 c9 -17 14 -38
10 -47 -5 -14 -10 -10 -25 18 -11 19 -19 41 -20 48 0 23 19 12 35 -19z m-347
9 c14 -14 16 -68 3 -68 -8 0 -31 52 -31 71 0 13 14 11 28 -3z m529 -20 c15
-26 17 -39 9 -60 -11 -31 -31 -37 -40 -12 -12 32 -6 104 10 104 1 0 11 -15 21
-32z m-797 1 c12 -22 4 -79 -10 -79 -17 0 -31 41 -25 71 8 34 20 37 35 8z
m360 2 c12 -24 13 -81 1 -81 -16 0 -32 28 -38 64 -4 29 -2 36 10 36 9 0 21 -9
27 -19z m-270 -62 c0 -16 -4 -29 -10 -29 -15 0 -30 36 -30 72 l1 33 19 -24
c11 -13 20 -36 20 -52z m-179 5 c-7 -24 -10 -26 -16 -11 -4 9 -4 29 0 44 5 23
8 25 15 12 5 -9 5 -29 1 -45z m-61 -1 c0 -31 -18 -29 -26 1 -7 31 4 55 17 35
5 -8 9 -24 9 -36z m330 -24 c0 -37 -15 -45 -34 -17 -17 23 -21 69 -9 82 12 12
43 -34 43 -65z m333 28 c5 -15 6 -35 2 -45 -6 -16 -8 -15 -21 2 -17 24 -19 79
-2 74 6 -2 16 -16 21 -31z m-795 -10 c4 -29 -12 -37 -22 -11 -10 26 -7 46 7
42 6 -3 13 -17 15 -31z m715 27 c9 -9 -4 -35 -14 -28 -5 3 -9 12 -9 20 0 14
12 19 23 8z m162 -34 c15 -29 13 -70 -4 -70 -12 0 -31 47 -31 75 0 34 16 31
35 -5z m-341 -13 c6 -15 6 -30 2 -34 -10 -10 -36 26 -36 50 0 26 23 16 34 -16z
m86 -53 c0 -13 -5 -24 -10 -24 -15 0 -39 60 -32 79 8 20 42 -24 42 -55z m-290
37 c15 -29 13 -104 -2 -99 -22 7 -40 57 -33 88 8 35 20 38 35 11z m620 0 c5
-11 10 -32 10 -47 0 -25 -2 -27 -15 -14 -19 19 -32 80 -17 80 6 0 16 -9 22
-19z m-256 -45 c-9 -30 -14 -32 -24 -16 -12 18 -13 54 -3 64 12 12 34 -27 27
-48z m350 38 c10 -25 7 -73 -5 -96 -11 -21 -12 -21 -25 3 -23 41 -16 109 11
109 7 0 16 -7 19 -16z m95 -6 c12 -12 23 -36 27 -54 6 -32 -9 -74 -26 -74 -26
0 -60 99 -47 135 9 21 23 19 46 -7z m-1163 -14 c9 -35 -12 -56 -24 -23 -10 26
-6 49 9 49 5 0 12 -12 15 -26z m272 -17 c2 -28 -1 -37 -12 -37 -18 0 -31 42
-22 66 10 27 31 9 34 -29z m-148 7 c0 -14 -4 -23 -10 -19 -5 3 -10 15 -10 26
0 10 5 19 10 19 6 0 10 -12 10 -26z m70 1 c0 -14 -4 -25 -9 -25 -10 0 -21 36
-13 44 12 13 22 5 22 -19z m260 -41 c0 -13 -4 -24 -10 -24 -15 0 -42 60 -35
78 6 15 9 14 26 -7 10 -13 19 -34 19 -47z m340 20 c0 -13 -4 -24 -9 -24 -11 0
-32 56 -24 64 11 11 33 -16 33 -40z m-272 14 c14 -14 16 -74 3 -83 -14 -8 -31
28 -31 64 0 33 8 39 28 19z m349 -22 c9 -20 13 -42 9 -53 -7 -16 -9 -16 -26 7
-21 26 -27 80 -10 80 6 0 18 -15 27 -34z m-263 -27 c12 -19 15 -34 9 -40 -12
-12 -29 7 -38 44 -9 36 6 34 29 -4z m356 -41 c0 -21 -4 -38 -9 -38 -13 0 -41
77 -35 95 12 30 44 -13 44 -57z m-992 18 c5 -25 -6 -66 -18 -66 -6 0 -10 21
-10 46 0 32 4 44 13 42 6 -3 14 -13 15 -22z m127 4 c7 -23 -2 -43 -16 -35 -12
8 -12 55 0 55 5 0 12 -9 16 -20z m65 -11 c0 -17 -4 -28 -10 -24 -5 3 -10 17
-10 31 0 13 5 24 10 24 6 0 10 -14 10 -31z m80 -21 c0 -44 -24 -29 -28 17 -3
34 -2 37 12 26 9 -8 16 -27 16 -43z m450 11 c0 -19 -20 -18 -30 1 -15 28 -1
49 17 25 7 -11 13 -22 13 -26z m70 11 c9 -21 10 -37 3 -53 -10 -21 -10 -21
-27 11 -16 31 -14 72 3 72 5 0 14 -14 21 -30z m-440 1 c12 -24 13 -78 1 -85
-12 -8 -28 13 -36 47 -13 49 13 78 35 38z m90 0 c17 -33 10 -101 -10 -101 -14
0 -32 69 -26 96 8 29 22 31 36 5z m708 -6 c25 -32 35 -85 22 -120 -8 -21 -13
-25 -24 -16 -27 22 -49 88 -42 125 8 42 18 45 44 11z m-89 -17 c16 -44 -3 -59
-23 -20 -20 38 -20 52 -2 52 8 0 19 -14 25 -32z m-179 -44 c0 -13 -4 -24 -8
-24 -9 0 -32 59 -32 81 1 25 40 -31 40 -57z m-350 5 c0 -16 -5 -29 -10 -29
-15 0 -34 46 -26 65 10 26 36 -1 36 -36z m88 -22 c-2 -17 -8 -32 -14 -34 -22
-7 -46 82 -27 101 14 14 44 -36 41 -67z m641 19 c15 -34 21 -69 19 -97 l-3
-44 -23 37 c-30 49 -44 97 -36 131 8 40 19 33 43 -27z m-305 2 c18 -25 21 -64
6 -73 -11 -7 -40 46 -40 75 0 26 15 26 34 -2z m-854 -24 c0 -27 -15 -32 -24
-9 -7 19 3 47 15 39 5 -3 9 -16 9 -30z m584 20 c10 -27 7 -56 -6 -52 -15 5
-24 68 -10 68 6 0 13 -7 16 -16z m-663 -41 c-9 -16 -10 -15 -11 8 0 14 3 29 8
33 12 12 14 -22 3 -41z m147 13 c3 -20 0 -27 -10 -24 -7 3 -14 17 -16 32 -3
20 0 27 10 24 7 -3 14 -17 16 -32z m602 -32 c0 -13 -4 -24 -10 -24 -14 0 -30
35 -30 67 l1 28 19 -24 c11 -13 20 -34 20 -47z m-530 37 c10 -20 4 -51 -10
-51 -8 0 -20 34 -20 58 0 19 18 14 30 -7z m75 -11 c18 -36 20 -83 3 -78 -17 6
-39 73 -32 93 8 21 11 19 29 -15z m715 11 c13 -25 13 -71 0 -71 -14 0 -30 35
-30 64 0 31 15 34 30 7z m-184 -22 c10 -20 13 -41 9 -58 l-7 -26 -19 24 c-20
24 -27 91 -9 91 5 0 17 -14 26 -31z m-431 -34 c3 -17 1 -37 -5 -45 -9 -13 -12
-12 -25 4 -15 20 -20 77 -8 90 11 11 32 -17 38 -49z m85 20 c5 -14 7 -33 4
-42 -3 -10 -8 -24 -10 -32 -8 -27 -34 10 -34 49 0 55 23 70 40 25z m627 -32
c29 -70 4 -89 -27 -20 -11 23 -20 50 -20 61 0 16 2 17 17 5 9 -8 22 -28 30
-46z m-553 25 c18 -25 21 -74 6 -83 -6 -4 -17 9 -25 29 -27 65 -14 101 19 54z
m351 -18 c16 -31 20 -75 6 -66 -15 9 -42 76 -36 86 9 15 13 13 30 -20z m-265
-6 c12 -31 -6 -76 -21 -53 -15 24 -10 79 8 79 2 0 8 -12 13 -26z m579 -39 c12
-25 21 -58 21 -74 0 -35 -22 -58 -37 -39 -25 31 -44 82 -45 118 -1 76 24 74
61 -5z m-1161 33 c4 -22 -17 -70 -28 -63 -11 7 -13 45 -4 70 8 19 28 15 32 -7z
m67 2 c3 -11 2 -28 -4 -37 -9 -16 -11 -16 -19 7 -10 26 -6 50 8 50 5 0 11 -9
15 -20z m593 -19 c12 -33 1 -60 -15 -39 -15 19 -25 56 -18 68 9 15 22 4 33
-29z m-524 3 c9 -24 7 -54 -4 -54 -13 0 -32 48 -24 61 8 14 21 11 28 -7z m797
-10 c5 -15 7 -36 3 -47 -6 -20 -7 -20 -20 -2 -16 22 -19 75 -4 75 6 0 15 -12
21 -26z m-721 -3 c12 -24 13 -71 2 -71 -11 0 -32 46 -32 70 0 26 16 26 30 1z
m-290 5 c0 -3 -4 -8 -10 -11 -5 -3 -10 -1 -10 4 0 6 5 11 10 11 6 0 10 -2 10
-4z m830 -57 c0 -10 -4 -20 -10 -24 -13 -8 -43 53 -35 73 6 15 9 14 26 -7 10
-13 19 -31 19 -42z m265 21 c16 -31 21 -100 7 -100 -17 0 -56 105 -46 121 10
16 23 9 39 -21z m-717 -14 c14 -27 10 -56 -6 -56 -12 0 -32 46 -32 71 0 28 22
19 38 -15z m540 -44 c-7 -59 -48 -15 -48 51 l1 32 25 -29 c16 -18 24 -38 22
-54z m-464 52 c18 -17 21 -61 6 -84 -7 -12 -12 -7 -24 21 -8 20 -12 46 -9 57
6 26 7 26 27 6z m96 -4 c14 -26 9 -92 -7 -97 -15 -5 -36 62 -29 93 8 29 22 31
36 4z m-430 -40 c0 -14 -5 -32 -10 -40 -9 -13 -11 -13 -20 0 -13 20 -13 47 1
72 9 17 13 18 20 7 5 -8 9 -25 9 -39z m1216 -21 c8 -29 12 -54 10 -56 -9 -9
-39 54 -43 91 -8 58 15 34 33 -35z m-696 12 c0 -9 -4 -23 -10 -31 -7 -11 -11
-9 -19 13 -13 33 -14 51 -4 61 9 9 33 -23 33 -43z m78 -19 c-2 -14 -8 -27 -14
-29 -16 -5 -37 52 -29 78 l8 23 19 -24 c10 -13 18 -35 16 -48z m-526 33 c9
-20 9 -28 -1 -38 -15 -15 -31 6 -31 41 0 30 18 28 32 -3z m-148 0 c7 -19 -3
-47 -15 -39 -12 7 -12 54 0 54 5 0 11 -7 15 -15z m226 -54 l-1 -36 -19 24
c-20 23 -26 61 -13 75 13 13 33 -27 33 -63z m720 15 c-1 -29 -1 -30 -15 -12
-8 11 -15 31 -15 44 0 21 2 22 15 12 8 -7 15 -27 15 -44z m230 -68 c0 -16 -4
-28 -9 -28 -14 0 -63 120 -56 138 8 23 65 -73 65 -110z m-420 41 c0 -16 -2
-29 -5 -29 -9 0 -35 60 -35 82 l1 23 19 -24 c11 -13 20 -36 20 -52z m268 18
c7 -15 12 -42 10 -60 l-3 -32 -23 35 c-24 38 -30 94 -9 88 6 -3 18 -17 25 -31z
m-726 6 c19 -17 24 -58 9 -67 -5 -3 -16 9 -25 28 -26 55 -19 71 16 39z m536
-28 c15 -31 15 -52 2 -60 -10 -6 -40 45 -40 70 0 24 26 17 38 -10z m432 -7
c11 -18 20 -43 20 -56 0 -26 -17 -62 -28 -62 -14 0 -42 69 -42 104 0 56 21 62
50 14z m-1140 -25 c0 -13 -5 -34 -11 -45 -9 -17 -13 -18 -20 -7 -10 16 -12 60
-3 83 9 24 34 1 34 -31z m264 15 c5 -14 6 -34 2 -44 -7 -18 -8 -18 -22 0 -18
25 -19 79 -1 74 6 -3 16 -16 21 -30z m86 -13 c8 -26 8 -39 -1 -56 l-11 -22
-14 24 c-14 25 -19 81 -8 92 11 11 22 -2 34 -38z m-505 -22 c-7 -17 -8 -16
-17 4 -6 12 -7 30 -3 40 7 17 8 16 17 -4 6 -12 7 -30 3 -40z m583 45 c20 -20
12 -88 -9 -88 -15 0 -30 49 -23 76 7 27 14 30 32 12z m92 -54 c0 -32 -15 -38
-28 -11 -12 23 -15 42 -13 67 3 24 41 -28 41 -56z m274 28 c5 -17 5 -39 2 -49
-7 -17 -8 -17 -22 1 -18 25 -19 89 -2 84 7 -3 17 -19 22 -36z m215 -26 c24
-48 28 -100 9 -94 -22 6 -68 110 -62 136 8 29 26 16 53 -42z m-1091 20 c3 -20
0 -27 -10 -24 -7 3 -14 17 -16 32 -3 20 0 27 10 24 7 -3 14 -17 16 -32z m152
15 c12 -24 13 -68 1 -75 -11 -7 -31 38 -31 69 0 30 15 33 30 6z m534 -38 c4
-13 4 -33 0 -45 l-7 -22 -18 23 c-18 22 -26 81 -12 94 7 8 27 -19 37 -50z
m266 -5 c11 -18 20 -44 20 -58 l-1 -25 -24 28 c-15 16 -25 40 -25 58 0 37 6
37 30 -3z m-726 6 c18 -17 22 -74 6 -74 -14 0 -39 60 -33 77 6 17 8 16 27 -3z
m546 -55 c0 -16 -4 -29 -8 -29 -13 0 -32 47 -32 78 l1 27 19 -24 c11 -13 20
-36 20 -52z m-872 7 c2 -15 1 -35 -3 -44 -9 -25 -25 4 -25 46 0 41 23 39 28
-2z m412 13 c6 -11 10 -30 8 -41 -3 -21 -4 -21 -20 -4 -19 18 -25 66 -8 66 5
0 14 -9 20 -21z m-340 -24 c0 -29 -16 -41 -24 -19 -8 21 3 56 15 49 5 -4 9
-17 9 -30z m163 -33 c0 -70 -22 -79 -43 -18 -7 24 -8 41 0 61 10 26 12 27 27
13 9 -10 16 -33 16 -56z m437 -6 c0 -17 -4 -37 -9 -44 -18 -30 -48 48 -36 96
l7 27 19 -24 c10 -13 19 -37 19 -55z m-532 52 c14 -14 16 -54 3 -63 -12 -7
-31 26 -31 54 0 24 10 27 28 9z m352 -7 c5 -11 10 -34 10 -52 0 -30 -2 -32
-15 -18 -19 19 -32 89 -17 89 6 0 16 -9 22 -19z m448 7 c14 -14 16 -78 3 -78
-9 0 -31 53 -31 76 0 17 12 18 28 2z m225 -53 c21 -43 26 -64 20 -79 -8 -17
-12 -14 -37 30 -15 27 -30 64 -33 83 -9 52 17 35 50 -34z m133 -3 c4 -20 3
-32 -4 -32 -15 0 -42 53 -42 82 0 22 0 22 20 3 11 -11 22 -35 26 -53z m-980
-48 c-7 -18 -9 -17 -27 5 -19 23 -26 71 -12 85 12 12 47 -70 39 -90z m262 56
c5 -45 -14 -62 -28 -25 -12 31 -4 68 13 62 7 -2 13 -18 15 -37z m160 27 c16
-18 25 -65 17 -84 -5 -15 -10 -12 -25 17 -29 54 -23 105 8 67z m292 -28 c21
-41 24 -86 5 -82 -15 2 -48 90 -41 108 8 23 14 19 36 -26z m358 -5 c10 -30 10
-48 2 -69 -10 -26 -12 -27 -26 -13 -17 17 -30 88 -20 113 10 26 30 12 44 -31z
m-552 -5 c16 -31 12 -79 -6 -79 -15 0 -30 36 -30 74 0 44 14 46 36 5z m-446
-56 c0 -18 -4 -33 -9 -33 -14 0 -33 64 -25 85 7 17 8 17 21 -1 7 -10 13 -33
13 -51z m530 17 c7 -16 9 -38 5 -47 -6 -15 -11 -11 -25 22 -18 38 -18 55 -1
55 5 0 14 -13 21 -30z m336 5 c19 -29 24 -86 8 -92 -14 -5 -44 57 -44 91 0 33
15 33 36 1z m-1211 4 c9 -13 -3 -59 -14 -59 -5 0 -11 9 -14 21 -10 36 12 65
28 38z m69 -5 c10 -27 7 -56 -6 -52 -15 5 -24 68 -10 68 6 0 13 -7 16 -16z
m355 -54 l-1 -35 -19 43 c-21 46 -17 76 7 45 7 -10 13 -34 13 -53z m665 11
c27 -60 32 -81 19 -81 -13 0 -63 96 -63 119 0 37 17 23 44 -38z m-944 30 c12
-24 13 -81 2 -81 -12 0 -32 47 -32 75 0 30 15 33 30 6z m98 -74 c-2 -22 -8
-42 -14 -44 -23 -8 -47 100 -27 121 16 16 44 -37 41 -77z m340 48 c15 -33 15
-62 1 -71 -19 -12 -47 51 -35 81 8 22 21 18 34 -10z m92 -4 c13 -33 10 -83 -6
-88 -15 -5 -34 41 -34 82 0 44 23 47 40 6z m285 -6 c9 -20 15 -46 13 -58 -3
-20 -5 -18 -25 14 -23 37 -31 79 -14 79 5 0 16 -16 26 -35z m439 -9 c17 -66
-21 -127 -42 -67 -12 34 4 114 22 108 6 -2 15 -20 20 -41z m-890 7 c-10 -40
-15 -47 -25 -32 -17 27 -10 59 11 59 17 0 19 -4 14 -27z m244 5 c15 -19 23
-71 14 -86 -13 -19 -42 29 -42 68 0 32 11 38 28 18z m558 -46 c4 -19 2 -32 -4
-32 -14 0 -44 68 -36 81 10 17 32 -11 40 -49z m-996 29 c12 -24 13 -68 1 -75
-11 -7 -31 38 -31 69 0 30 15 33 30 6z m528 -13 c16 -16 16 -91 0 -86 -15 5
-38 67 -31 85 6 16 16 16 31 1z m218 -31 c32 -61 39 -128 13 -111 -14 9 -59
101 -59 122 0 42 22 37 46 -11z m124 11 c21 -35 27 -88 9 -88 -15 0 -50 85
-43 104 8 22 11 21 34 -16z m-1212 -30 c-5 -37 -28 -33 -28 5 0 18 3 37 7 41
10 10 25 -21 21 -46z m72 6 c0 -24 -4 -34 -12 -32 -15 5 -22 42 -14 64 10 25
26 5 26 -32z m348 21 c16 -34 15 -78 0 -73 -6 2 -17 20 -23 39 -19 54 1 83 23
34z m-273 -15 c19 -36 11 -78 -10 -60 -23 19 -31 90 -10 90 3 0 12 -14 20 -30z
m840 -57 c3 -13 1 -31 -4 -41 -8 -14 -14 -7 -36 40 -30 67 -24 97 11 53 13
-16 25 -39 29 -52z m-748 0 c6 -28 -3 -57 -16 -48 -15 9 -33 74 -26 93 6 16 8
15 21 -3 8 -11 17 -30 21 -42z m261 24 c2 -15 -1 -27 -7 -27 -6 0 -11 3 -11 8
0 4 -3 18 -7 31 -4 18 -2 23 8 19 8 -2 15 -17 17 -31z m76 11 c17 -25 21 -64
7 -72 -14 -9 -31 19 -38 58 -7 41 8 48 31 14z m731 -9 c18 -33 17 -70 -1 -76
-13 -4 -34 48 -34 83 0 33 16 30 35 -7z m-985 -55 c0 -46 -11 -62 -28 -41 -18
22 -23 62 -12 92 11 29 12 29 26 11 8 -11 14 -39 14 -62z m348 32 c14 -29 9
-76 -9 -76 -15 0 -39 64 -32 89 7 28 24 22 41 -13z m86 12 c22 -32 19 -108 -4
-108 -14 0 -40 80 -34 105 8 31 18 32 38 3z m86 -17 c12 -24 13 -78 1 -85 -11
-7 -31 39 -31 74 0 34 14 39 30 11z m540 0 c13 -25 13 -61 0 -61 -13 0 -30 34
-30 59 0 26 16 27 30 2z m-986 -13 c17 -25 21 -64 7 -72 -14 -9 -31 19 -38 58
-7 41 8 48 31 14z m675 -49 c29 -66 16 -82 -20 -27 -31 46 -42 111 -15 89 8
-6 23 -34 35 -62z m123 32 c25 -51 11 -71 -18 -24 -13 21 -24 44 -24 51 0 23
24 7 42 -27z m264 27 c11 -18 32 -128 25 -128 -14 0 -51 79 -51 109 0 31 13
41 26 19z m-1486 -39 c0 -21 -21 -59 -30 -54 -11 7 -13 55 -3 81 6 16 7 16 20
-2 7 -10 13 -21 13 -25z m73 20 c7 -26 -10 -72 -23 -64 -16 10 -13 85 4 85 7
0 16 -9 19 -21z m77 -9 c13 -31 6 -85 -10 -75 -5 3 -14 21 -20 41 -20 59 7 90
30 34z m820 -12 c34 -56 20 -128 -15 -75 -30 47 -38 107 -14 107 5 0 18 -15
29 -32z m-466 6 c9 -24 7 -52 -4 -59 -13 -8 -34 39 -27 59 8 20 23 20 31 0z
m-276 -19 c14 -30 16 -75 4 -75 -10 0 -30 38 -33 60 -5 46 11 54 29 15z m362
-41 c0 -13 -4 -24 -10 -24 -14 0 -30 35 -30 67 l1 28 19 -24 c11 -13 20 -34
20 -47z m730 -11 c0 -23 -4 -33 -12 -31 -18 6 -42 74 -33 95 6 16 8 16 26 -6
11 -13 19 -39 19 -58z m-653 13 c9 -20 13 -42 9 -53 -7 -17 -9 -16 -27 6 -20
24 -26 81 -9 81 6 0 18 -15 27 -34z m719 17 c16 -21 18 -69 5 -78 -14 -8 -31
28 -31 64 0 35 7 39 26 14z m-1072 -25 c5 -14 6 -34 2 -44 -7 -18 -8 -18 -22
0 -18 25 -19 79 -1 74 6 -3 16 -16 21 -30z m84 7 c13 -28 15 -65 6 -89 -10
-26 -21 -19 -38 24 -26 66 4 127 32 65z m358 -17 c17 -33 11 -82 -9 -75 -21 6
-39 56 -32 87 8 35 19 31 41 -12z m317 -17 c30 -65 34 -91 14 -91 -20 0 -73
123 -61 141 11 18 20 8 47 -50z m122 29 c17 -33 20 -66 5 -75 -12 -8 -40 47
-40 80 0 34 16 32 35 -5z m-349 -17 c12 -27 13 -42 5 -60 -14 -30 -25 -29 -39
2 -13 29 -15 55 -6 79 10 26 24 19 40 -21z m619 -3 c16 -31 20 -70 7 -70 -9 0
-32 59 -32 83 0 25 7 21 25 -13z m-1341 -12 c10 -28 1 -78 -14 -78 -13 0 -32
74 -24 94 9 23 27 15 38 -16z m815 -11 c36 -74 20 -129 -19 -65 -20 33 -28
108 -11 108 5 0 19 -19 30 -43z m-904 -12 c0 -41 -19 -59 -30 -26 -8 26 5 73
19 68 6 -2 11 -21 11 -42z m445 -2 c0 -37 -24 -22 -28 17 -3 30 -2 32 12 21 9
-8 16 -25 16 -38z m-274 6 c15 -31 13 -79 -5 -79 -15 0 -43 69 -36 90 9 28 22
25 41 -11z m340 14 c7 -10 13 -34 13 -53 l0 -35 -19 24 c-19 21 -28 81 -14 81
4 0 13 -8 20 -17z m742 -27 c8 -15 11 -35 7 -44 -5 -14 -10 -10 -25 18 -11 19
-19 41 -20 48 0 22 24 8 38 -22z m-1008 -5 c13 -25 13 -68 0 -76 -5 -3 -14 14
-21 37 -6 24 -13 46 -16 51 -2 4 3 7 11 7 8 0 20 -9 26 -19z m1084 -13 c21
-50 0 -82 -24 -37 -11 19 -6 69 6 69 3 0 11 -14 18 -32z m-726 -12 c8 -15 11
-35 7 -44 -5 -14 -10 -10 -25 18 -11 19 -19 41 -20 48 0 22 24 8 38 -22z m400
0 c27 -39 38 -96 25 -121 -9 -15 -14 -10 -33 29 -24 50 -38 126 -24 126 5 0
19 -15 32 -34z m132 5 c12 -24 13 -71 1 -71 -13 0 -43 68 -36 80 10 16 23 12
35 -9z m275 -11 c17 -32 20 -86 6 -94 -10 -6 -41 64 -41 93 0 16 8 31 16 31 2
0 10 -13 19 -30z m-1085 1 c5 -11 10 -35 10 -53 l-1 -33 -19 24 c-21 24 -28
81 -10 81 5 0 14 -9 20 -19z m366 -17 c8 -20 12 -45 8 -57 l-7 -21 -18 23
c-20 25 -26 91 -8 91 5 0 17 -16 25 -36z m-274 -46 c-7 -30 -21 -31 -34 -4 -9
20 -8 32 2 54 l13 27 12 -29 c7 -16 10 -38 7 -48z m368 -4 c0 -44 -16 -51 -35
-15 -16 32 -20 73 -8 85 13 13 43 -35 43 -70z m90 26 c21 -40 26 -95 11 -118
-17 -28 -68 88 -57 131 9 37 22 34 46 -13z m-822 2 c10 -31 5 -79 -9 -88 -19
-11 -40 92 -22 109 12 13 21 7 31 -21z m98 -43 c5 -37 -7 -66 -24 -55 -17 10
-34 75 -27 103 6 26 6 26 26 7 11 -11 22 -36 25 -55z m346 12 c2 -11 -1 -21
-7 -23 -14 -4 -38 50 -30 69 5 14 8 14 20 -4 8 -12 16 -30 17 -42z m739 12 c9
-24 3 -53 -11 -53 -13 0 -42 70 -36 87 5 13 9 13 22 2 9 -7 20 -23 25 -36z
m-1266 16 c8 -24 -2 -69 -15 -69 -13 0 -23 38 -16 66 8 29 22 31 31 3z m1555
-76 c0 -6 -4 -14 -10 -18 -12 -7 -50 66 -50 97 0 19 5 15 30 -22 16 -25 30
-50 30 -57z m-943 20 c6 -28 -4 -60 -16 -47 -15 16 -33 83 -25 95 8 14 32 -14
41 -48z m-359 18 c11 -30 6 -71 -8 -71 -18 0 -38 78 -23 93 12 13 21 7 31 -22z
m887 -1 c17 -33 20 -70 5 -70 -13 0 -40 54 -40 80 0 29 17 25 35 -10z m195 11
c13 -25 13 -61 0 -61 -11 0 -30 42 -30 66 0 20 18 17 30 -5z m-312 -60 c14
-45 16 -91 4 -91 -9 0 -46 77 -57 117 -18 65 34 39 53 -26z m-688 19 c7 -16 9
-37 6 -47 -6 -15 -8 -15 -20 3 -14 19 -20 45 -17 72 2 20 17 6 31 -28z m1085
1 c18 -40 14 -78 -6 -65 -17 10 -40 71 -33 88 10 25 20 19 39 -23z m-727 -4
c9 -19 10 -32 3 -44 -8 -16 -12 -13 -25 19 -9 21 -16 42 -16 49 0 19 24 4 38
-24z m-203 -8 c18 -34 17 -80 -2 -87 -18 -5 -35 47 -28 85 3 18 8 33 10 33 3
0 12 -14 20 -31z m-75 -36 c0 -24 -16 -33 -18 -10 -1 6 -4 26 -7 42 -6 29 -6
29 9 11 9 -11 16 -30 16 -43z m358 32 c21 -46 12 -86 -15 -64 -14 12 -18 89
-5 89 5 0 14 -11 20 -25z m749 -69 c7 -42 -9 -48 -31 -13 -20 30 -30 73 -22
94 6 15 10 13 27 -14 11 -17 23 -48 26 -67z m-1547 43 c0 -10 -5 -30 -10 -45
-17 -43 -34 -15 -26 41 6 39 10 44 22 34 8 -6 14 -20 14 -30z m1254 9 c20 -45
9 -67 -15 -31 -21 31 -25 63 -9 63 6 0 17 -14 24 -32z m-1186 10 c15 -15 16
-84 2 -93 -14 -9 -40 57 -33 83 6 25 14 27 31 10z m101 -44 c17 -63 -13 -102
-37 -49 -13 28 -15 65 -6 89 9 24 31 3 43 -40z m733 -1 c19 -43 18 -93 -1 -93
-16 0 -53 101 -46 127 8 32 23 21 47 -34z m-292 -24 c0 -16 -2 -29 -5 -29 -9
0 -35 60 -35 82 l1 23 19 -24 c11 -13 20 -36 20 -52z m536 24 c21 -50 3 -94
-24 -60 -16 20 -24 57 -18 83 8 31 23 22 42 -23z m194 26 c13 -24 10 -61 -6
-66 -7 -2 -17 10 -22 27 -18 50 5 82 28 39z m-1080 -53 c0 -28 -15 -50 -28
-42 -15 9 -25 62 -16 88 l7 22 18 -23 c11 -13 19 -33 19 -45z m68 19 c14 -31
16 -82 3 -89 -10 -7 -41 54 -41 81 0 39 22 44 38 8z m693 -40 c22 -48 24 -85
6 -110 -13 -16 -16 -13 -40 36 -25 49 -35 117 -20 132 10 11 35 -15 54 -58z
m401 26 c15 -31 15 -61 -1 -61 -10 0 -41 66 -41 86 0 25 24 11 42 -25z m-725
-29 c7 -29 -3 -40 -21 -21 -14 14 -20 38 -17 69 2 20 29 -15 38 -48z m543 -23
c0 -16 -3 -29 -6 -29 -16 0 -33 38 -33 70 l0 35 19 -24 c11 -13 20 -36 20 -52z
m360 61 c0 -5 -2 -10 -4 -10 -3 0 -8 5 -11 10 -3 6 -1 10 4 10 6 0 11 -4 11
-10z m-1192 -25 c6 -14 9 -32 5 -41 -6 -15 -7 -15 -20 2 -14 20 -18 64 -5 64
5 0 14 -11 20 -25z m357 -5 c17 -32 20 -60 7 -60 -11 0 -32 46 -32 70 0 28 7
25 25 -10z m751 -37 c13 -31 10 -63 -6 -63 -16 0 -52 89 -44 112 6 21 7 21 21
2 8 -10 21 -33 29 -51z m-1016 -14 c0 -23 -25 -25 -34 -3 -3 9 -6 28 -6 42 l1
27 19 -24 c11 -13 20 -32 20 -42z m-450 -13 c0 -17 -5 -38 -10 -46 -9 -13 -12
-12 -25 4 -18 24 -19 59 -4 88 11 21 12 21 25 3 8 -10 14 -33 14 -49z m536 8
c3 -19 3 -42 -1 -51 -6 -16 -8 -16 -26 6 -18 22 -26 81 -12 94 11 12 32 -14
39 -49z m-449 -11 c6 -27 -4 -73 -16 -73 -22 0 -42 105 -24 124 9 9 32 -21 40
-51z m739 4 c15 -28 12 -77 -4 -77 -15 0 -53 92 -47 112 6 16 9 17 22 7 8 -7
21 -26 29 -42z m438 15 c9 -34 2 -52 -14 -36 -5 5 -13 25 -16 43 -9 45 17 38
30 -7z m-198 -7 c13 -33 10 -85 -5 -85 -10 0 -41 67 -41 89 0 43 27 41 46 -4z
m294 -45 c0 -38 -14 -45 -33 -17 -15 24 -20 47 -18 82 1 18 4 17 26 -8 14 -16
25 -41 25 -57z m-1190 4 c0 -47 -11 -62 -30 -39 -13 16 -16 77 -5 95 14 22 35
-11 35 -56z m1410 -24 c0 -9 -5 -21 -12 -28 -16 -16 -57 52 -57 93 l0 30 34
-39 c19 -22 35 -47 35 -56z m-1330 61 c11 -22 14 -84 3 -94 -11 -12 -32 14
-39 49 -10 57 13 87 36 45z m369 -51 l0 -25 -19 24 c-11 13 -20 35 -20 50 l0
26 20 -25 c11 -14 20 -36 19 -50z m331 -77 c0 -24 -4 -43 -9 -43 -15 0 -61
102 -61 135 0 50 11 49 42 -2 18 -32 28 -62 28 -90z m-610 73 c0 -12 -5 -28
-10 -36 -9 -13 -11 -13 -20 0 -11 18 -13 73 -3 84 10 10 33 -24 33 -48z m810
39 c16 -19 19 -87 4 -92 -14 -5 -34 40 -34 77 0 33 11 38 30 15z m-730 -68 c0
-28 -2 -30 -15 -16 -9 8 -18 33 -21 55 l-5 39 20 -24 c12 -13 21 -37 21 -54z
m270 46 c8 -16 15 -31 17 -35 2 -4 -1 -9 -6 -12 -15 -9 -41 23 -41 50 0 32 13
30 30 -3z m740 -13 c21 -41 26 -80 11 -80 -13 0 -41 64 -41 94 0 36 6 33 30
-14z m-180 -41 c0 -10 -4 -20 -9 -24 -14 -8 -31 28 -31 62 l1 28 19 -24 c11
-13 20 -31 20 -42z m-752 -4 c7 -21 10 -40 7 -43 -10 -10 -26 15 -35 52 -11
50 11 43 28 -9z m293 0 c26 -59 14 -80 -17 -29 -13 22 -24 47 -24 57 0 32 21
18 41 -28z m-837 19 c9 -24 7 -87 -4 -104 -9 -13 -11 -13 -20 0 -18 27 -10
120 10 120 4 0 11 -7 14 -16z m93 -15 c15 -28 16 -68 4 -88 -21 -33 -56 33
-46 87 7 38 24 38 42 1z m539 -15 c14 -32 10 -64 -7 -64 -14 0 -29 37 -29 75
0 43 15 38 36 -11z m460 -19 c8 -42 -11 -81 -31 -65 -19 15 -28 63 -20 101 7
29 8 30 26 13 10 -9 21 -31 25 -49z m269 35 c8 -16 15 -39 15 -52 l-1 -23 -19
24 c-17 20 -29 81 -15 81 2 0 11 -13 20 -30z m225 -67 c0 -45 -12 -41 -38 11
-23 44 -27 68 -15 79 12 13 53 -57 53 -90z m-1410 48 c14 -36 10 -76 -9 -76
-19 0 -35 49 -27 80 8 33 21 31 36 -4z m90 -7 c13 -33 12 -75 0 -94 -16 -24
-40 15 -40 65 0 60 22 76 40 29z m1190 -14 c21 -41 26 -85 12 -94 -14 -8 -52
68 -52 103 0 42 16 39 40 -9z m-1108 5 c14 -31 -6 -90 -23 -64 -12 19 -11 89
1 89 6 0 16 -11 22 -25z m368 -34 c-1 -25 -1 -25 -15 -7 -8 11 -15 31 -15 45
1 25 1 25 15 7 8 -11 15 -31 15 -45z m470 -12 c0 -37 -15 -45 -34 -17 -17 23
-21 69 -9 82 12 12 43 -34 43 -65z m-752 27 c14 -29 9 -76 -9 -76 -15 0 -41
69 -34 91 9 26 27 20 43 -15z m501 -3 c24 -37 41 -113 25 -113 -15 0 -64 96
-64 124 0 35 11 32 39 -11z m331 -34 c0 -42 -13 -51 -30 -20 -11 22 -13 64 -3
74 14 14 33 -17 33 -54z m-754 17 c8 -14 14 -35 12 -48 l-3 -23 -17 25 c-22
34 -32 70 -19 70 6 0 18 -11 27 -24z m278 -8 c-9 -14 -23 2 -17 18 4 12 8 13
14 3 4 -7 5 -17 3 -21z m551 -8 c17 -33 20 -70 5 -70 -13 0 -40 54 -40 80 0
29 17 25 35 -10z m213 -39 c15 -41 15 -51 2 -51 -15 0 -40 56 -40 92 0 30 1
31 13 13 8 -11 19 -35 25 -54z m92 59 c0 -5 -2 -10 -4 -10 -3 0 -8 5 -11 10
-3 6 -1 10 4 10 6 0 11 -4 11 -10z m-1689 -31 c12 -23 15 -86 4 -97 -13 -14
-35 33 -35 75 0 47 13 56 31 22z m99 -8 c14 -28 12 -84 -4 -106 -13 -18 -14
-18 -25 3 -12 22 -15 104 -4 115 11 12 22 8 33 -12z m550 -39 c0 -7 -5 -10
-11 -7 -14 9 -28 48 -21 59 5 10 31 -32 32 -52z m-460 29 c15 -28 12 -77 -4
-90 -19 -16 -36 14 -36 62 0 49 20 64 40 28z m544 -7 c19 -23 25 -25 44 -15
17 9 23 8 36 -10 10 -15 28 -23 60 -26 44 -3 45 -3 48 29 4 32 5 31 37 -35 18
-37 30 -74 27 -83 -3 -8 1 -17 9 -21 33 -12 124 -216 111 -249 -7 -19 -26 -8
-26 15 0 22 -26 58 -35 49 -4 -4 5 -37 19 -74 38 -95 21 -129 -22 -44 -22 43
-42 50 -42 16 0 -31 -6 -32 -33 -8 -19 17 -20 16 -13 -13 26 -104 13 -143 -25
-75 -24 42 -43 51 -53 24 -5 -13 -9 -14 -21 -4 -24 20 -30 4 -15 -40 9 -28 10
-44 3 -51 -17 -17 -66 106 -58 148 6 31 4 34 -15 31 -17 -3 -28 13 -70 103
-50 109 -70 179 -52 179 5 0 13 20 16 44 4 26 13 47 23 50 11 5 14 14 9 39 -5
29 -1 47 11 47 2 0 14 -12 27 -26z m356 6 c13 -25 9 -85 -5 -85 -5 0 -15 15
-21 34 -18 57 2 96 26 51z m-822 -3 c19 -22 24 -64 12 -88 -12 -22 -13 -22
-26 -4 -15 21 -19 105 -5 105 5 0 13 -6 19 -13z m187 -47 c4 -16 1 -39 -6 -52
-12 -23 -13 -22 -31 19 -12 26 -16 52 -12 68 6 24 7 25 25 9 10 -9 21 -29 24
-44z m729 38 c18 -25 21 -75 6 -98 -11 -18 -19 -11 -34 35 -13 37 -10 85 5 85
4 0 15 -10 23 -22z m289 -7 c18 -30 23 -71 9 -71 -12 0 -42 56 -42 79 0 29 13
26 33 -8z m-1115 -15 c2 -16 1 -40 -3 -55 -6 -25 -7 -25 -21 -7 -15 21 -18 54
-8 81 10 24 29 12 32 -19z m187 -51 c6 -33 -7 -61 -24 -51 -16 10 -35 82 -27
102 6 17 8 16 26 -2 11 -10 22 -33 25 -49z m733 39 c12 -25 7 -74 -7 -74 -12
0 -31 48 -31 75 0 33 24 32 38 -1z m292 -24 c22 -43 26 -75 10 -85 -16 -10
-50 57 -50 98 0 45 12 41 40 -13z m120 18 c20 -33 27 -88 12 -88 -10 0 -52 85
-52 105 0 25 19 17 40 -17z m-324 -15 c13 -30 13 -41 3 -62 l-12 -26 -18 40
c-10 22 -19 50 -19 63 0 35 29 26 46 -15z m-744 -17 c6 -14 8 -33 4 -42 -6
-16 -8 -16 -20 2 -7 10 -16 29 -20 42 -10 31 21 30 36 -2z m832 -21 c24 -43
26 -75 4 -75 -13 0 -51 89 -44 106 8 21 12 18 40 -31z m-376 -56 c-2 -12 -8
-24 -15 -26 -15 -5 -38 69 -29 94 6 15 10 13 27 -14 11 -18 19 -42 17 -54z
m-1020 46 c14 -31 16 -82 3 -89 -20 -13 -46 51 -37 90 8 31 20 31 34 -1z m92
10 c18 -22 16 -93 -3 -113 -15 -14 -17 -13 -27 12 -17 44 -11 116 10 116 4 0
13 -7 20 -15z m94 -19 c19 -40 19 -46 6 -81 -9 -22 -13 -25 -25 -15 -27 22
-32 130 -6 130 5 0 16 -15 25 -34z m161 0 c28 -43 18 -121 -14 -102 -25 16
-34 126 -10 126 5 0 16 -11 24 -24z m1261 -17 c8 -17 14 -42 12 -57 l-3 -27
-22 36 c-23 37 -32 96 -13 84 6 -3 17 -20 26 -36z m-1336 -19 c0 -34 -9 -60
-21 -60 -12 0 -22 64 -14 90 9 29 35 7 35 -30z m-350 13 c0 -16 -5 -35 -10
-43 -7 -11 -10 -4 -10 28 0 23 5 42 10 42 6 0 10 -12 10 -27z m529 -17 c11
-28 11 -42 2 -62 -6 -14 -15 -23 -20 -19 -16 9 -33 75 -27 101 9 34 28 26 45
-20z m638 32 c23 -30 25 -98 3 -98 -4 0 -15 18 -24 40 -21 52 -6 92 21 58z
m113 -50 c0 -11 -5 -29 -11 -40 -11 -21 -12 -21 -25 -3 -15 20 -19 87 -7 99
11 10 43 -32 43 -56z m278 28 c16 -24 22 -45 20 -68 l-4 -33 -27 55 c-40 82
-33 111 11 46z m-202 -11 c15 -36 10 -90 -8 -79 -17 11 -39 75 -33 95 9 29 24
23 41 -16z m-736 -56 c0 -15 -4 -30 -9 -33 -20 -13 -49 59 -36 91 6 16 8 16
26 -6 10 -13 19 -36 19 -52z m823 42 c18 -31 23 -101 8 -101 -20 0 -41 46 -41
87 0 50 9 54 33 14z m216 -35 c22 -34 29 -96 11 -96 -14 0 -50 75 -50 105 0
34 14 31 39 -9z m-1599 -58 c0 -16 -5 -39 -11 -50 -11 -21 -12 -21 -25 3 -14
26 -18 77 -7 105 6 15 8 15 25 -6 10 -12 18 -36 18 -52z m164 40 c20 -28 20
-75 1 -108 l-14 -25 -15 37 c-17 40 -19 60 -10 96 8 28 19 28 38 0z m96 -39
c0 -59 -23 -78 -41 -33 -7 19 -6 38 2 62 11 33 13 34 25 17 8 -10 14 -31 14
-46z m76 25 c17 -40 15 -85 -2 -91 -16 -5 -45 73 -38 102 9 35 23 31 40 -11z
m1144 4 c21 -35 27 -88 10 -88 -13 0 -49 77 -50 103 0 27 18 20 40 -15z
m-1400 -13 c8 -26 8 -39 -1 -56 -11 -22 -12 -22 -25 -4 -14 19 -19 77 -7 88
13 14 22 6 33 -28z m359 -31 c9 -32 -2 -74 -19 -74 -22 0 -42 105 -23 124 10
10 32 -16 42 -50z m647 32 c17 -27 16 -67 -2 -73 -6 -2 -18 13 -27 34 -23 59
-3 86 29 39z m84 -5 c13 -25 13 -91 0 -91 -15 0 -30 36 -30 74 0 39 13 47 30
17z m95 -5 c19 -28 17 -97 -3 -104 -18 -6 -44 64 -37 99 8 35 19 37 40 5z
m-746 -9 c14 -27 11 -79 -5 -84 -14 -5 -34 40 -34 77 0 36 21 40 39 7z m1169
11 c6 -7 13 -30 17 -50 9 -47 -8 -51 -30 -8 -25 49 -16 92 13 58z m-328 -30
c21 -34 23 -89 4 -95 -17 -6 -57 82 -49 107 9 28 22 25 45 -12z m-761 8 c28
-34 36 -116 11 -116 -16 0 -40 57 -40 95 0 37 10 44 29 21z m981 -41 c13 -26
19 -53 15 -63 -5 -14 -11 -10 -31 23 -24 40 -32 85 -15 85 5 0 19 -20 31 -45z
m-118 -19 c24 -50 19 -108 -7 -86 -20 16 -49 96 -42 115 11 26 26 17 49 -29z
m-1504 -55 c-4 -57 -24 -64 -38 -13 -7 29 -7 48 1 69 10 27 11 28 25 8 9 -12
14 -37 12 -64z m91 4 c1 -16 -4 -37 -9 -45 -9 -13 -12 -12 -25 4 -18 23 -19
69 -4 98 11 21 12 21 25 -3 7 -13 13 -37 13 -54z m260 29 c15 -44 8 -98 -12
-91 -19 6 -41 80 -33 111 9 37 28 28 45 -20z m-172 -27 c3 -20 2 -44 -2 -54
-6 -17 -8 -16 -26 6 -19 23 -27 90 -12 105 12 12 33 -19 40 -57z m84 40 c8
-17 7 -36 -1 -65 -17 -63 -40 -50 -40 23 0 64 21 85 41 42z m1449 -9 c21 -35
26 -73 10 -83 -5 -3 -18 12 -30 34 -36 72 -19 113 20 49z m-1275 -12 c20 -30
16 -91 -5 -91 -9 0 -21 18 -29 41 -23 65 2 100 34 50z m749 -7 c21 -51 0 -94
-24 -50 -13 25 -13 81 0 81 6 0 17 -14 24 -31z m-656 -4 c16 -34 15 -57 -2
-81 -18 -24 -26 -16 -33 35 -9 67 13 95 35 46z m93 -30 c15 -33 17 -49 9 -69
-5 -14 -12 -26 -14 -26 -10 0 -34 55 -36 80 -7 81 9 87 41 15z m654 19 c17
-36 14 -84 -5 -84 -24 0 -52 95 -33 113 12 13 21 7 38 -29z m335 -50 c0 -19
-4 -34 -8 -34 -13 0 -42 68 -42 98 l1 27 24 -28 c16 -18 25 -40 25 -63z m-245
52 c34 -51 27 -136 -9 -107 -21 18 -39 77 -32 107 8 30 21 31 41 0z m106 -47
c33 -66 12 -120 -24 -60 -18 31 -24 117 -7 106 6 -4 19 -24 31 -46z m-752 -12
c22 -45 25 -65 15 -91 -10 -25 -24 -19 -40 19 -16 38 -19 115 -5 115 5 0 19
-19 30 -43z m981 -48 c0 -16 -2 -29 -5 -29 -12 0 -45 67 -45 90 l1 25 24 -28
c15 -16 25 -40 25 -58z m-1744 36 c17 -41 18 -69 3 -97 -11 -21 -12 -21 -25 3
-16 29 -19 129 -3 129 5 0 17 -16 25 -35z m100 -30 c3 -12 0 -34 -6 -50 -11
-29 -12 -29 -26 -11 -15 21 -19 72 -7 102 6 16 7 15 20 -2 8 -10 16 -28 19
-39z m79 25 c19 -36 19 -70 1 -95 -13 -18 -14 -17 -30 13 -18 36 -20 65 -6 93
14 25 17 24 35 -11z m175 11 c12 -24 13 -101 1 -120 -7 -11 -12 -9 -24 10 -23
36 -29 71 -18 102 12 32 26 34 41 8z m96 -26 c18 -43 18 -66 0 -90 -13 -18
-14 -17 -30 13 -17 32 -20 69 -10 96 10 25 24 19 40 -19z m754 -21 c0 -19 -4
-34 -9 -34 -13 0 -34 58 -27 76 10 27 36 -3 36 -42z m404 34 c22 -30 30 -82
18 -105 -9 -16 -13 -12 -31 27 -34 74 -24 131 13 78z m-1343 -12 c12 -26 5
-76 -11 -76 -17 0 -31 41 -25 71 8 35 22 37 36 5z m1543 8 c3 -9 6 -30 6 -47
0 -27 -2 -29 -14 -17 -14 14 -20 39 -17 68 1 17 18 15 25 -4z m-519 -24 c18
-34 19 -66 4 -75 -14 -9 -18 -3 -34 41 -21 62 2 89 30 34z m-755 0 c13 -25 9
-85 -5 -85 -17 1 -37 55 -31 81 8 29 22 31 36 4z m90 -12 c21 -35 26 -83 11
-107 -7 -11 -14 -7 -30 20 -26 42 -28 119 -4 119 2 0 12 -15 23 -32z m763 -21
c19 -38 17 -87 -4 -87 -16 0 -51 88 -44 111 9 28 27 19 48 -24z m337 -53 c0
-19 -5 -34 -11 -34 -15 0 -50 85 -42 106 11 28 53 -28 53 -72z m-238 36 c32
-61 16 -142 -19 -94 -32 43 -40 141 -11 132 6 -2 19 -20 30 -38z m-741 -37
c11 -35 6 -83 -10 -83 -11 0 -51 80 -51 102 0 9 3 24 6 33 6 15 8 15 25 -1 10
-9 23 -32 30 -51z m344 43 c9 -14 15 -37 13 -53 l-3 -28 -16 25 c-21 32 -33
80 -19 80 5 0 17 -11 25 -24z m85 -35 c13 -32 5 -80 -11 -64 -13 13 -27 65
-22 81 7 20 20 14 33 -17z m-1120 0 c14 -28 12 -74 -4 -97 -14 -18 -15 -18
-26 11 -12 31 -4 105 11 105 4 0 13 -9 19 -19z m98 -64 c-4 -48 -20 -58 -36
-22 -13 29 -15 65 -5 91 6 15 8 15 25 -6 13 -16 18 -36 16 -63z m168 37 c16
-39 17 -63 4 -84 -8 -13 -11 -12 -24 5 -18 25 -29 80 -21 106 8 25 23 15 41
-27z m1270 11 c16 -40 18 -81 4 -90 -12 -8 -50 67 -50 100 0 37 28 31 46 -10z
m210 -31 l5 -39 -20 24 c-12 13 -21 37 -21 54 0 28 2 30 15 16 9 -8 18 -33 21
-55z m-1566 36 c11 -21 4 -86 -11 -95 -13 -8 -29 30 -29 68 0 50 20 64 40 27z
m190 -55 c0 -22 -6 -50 -14 -61 -14 -18 -15 -17 -31 20 -10 24 -14 49 -9 70 9
45 14 49 35 30 13 -12 19 -31 19 -59z m415 25 c26 -51 32 -104 15 -130 -7 -11
-15 -2 -34 40 -26 55 -35 140 -16 140 5 0 21 -22 35 -50z m145 -31 c0 -19 -4
-28 -11 -23 -14 8 -39 68 -39 91 1 33 50 -35 50 -68z m-1012 10 c-2 -24 -7
-44 -13 -44 -13 0 -19 49 -10 83 10 40 27 11 23 -39z m542 -3 c0 -30 -11 -66
-20 -66 -21 0 -37 80 -23 116 6 15 8 15 25 -6 10 -12 18 -32 18 -44z m738 51
c16 -19 25 -64 13 -71 -11 -7 -41 43 -41 69 0 18 14 20 28 2z m443 -57 c20
-66 -7 -96 -36 -40 -15 30 -20 81 -8 93 11 12 33 -14 44 -53z m-1098 7 c18
-35 16 -97 -2 -97 -14 0 -41 71 -41 106 0 45 18 41 43 -9z m467 11 c23 -38 26
-71 7 -87 -11 -8 -16 -5 -25 15 -12 25 -17 104 -7 104 3 0 14 -15 25 -32z
m291 -12 c18 -42 17 -76 -3 -76 -14 0 -49 86 -42 104 10 27 24 18 45 -28z m99
-31 c21 -44 22 -95 1 -95 -12 0 -51 81 -51 106 0 21 8 34 21 34 4 0 17 -20 29
-45z m-761 9 c22 -28 28 -97 11 -124 -13 -20 -49 62 -50 113 0 44 11 47 39 11z
m1084 -17 c13 -26 16 -41 9 -54 -9 -15 -13 -13 -31 18 -23 38 -28 83 -8 77 6
-2 20 -21 30 -41z m-840 -1 c22 -33 31 -72 18 -80 -11 -7 -51 63 -51 89 0 22
16 18 33 -9z m217 -28 c0 -10 -4 -18 -9 -18 -11 0 -21 25 -21 53 1 22 1 22 15
3 8 -11 15 -28 15 -38z m418 -46 c-2 -25 -8 -47 -14 -49 -25 -8 -59 119 -37
141 4 4 18 -5 31 -19 18 -22 22 -37 20 -73z m-1277 27 c9 -30 9 -45 -1 -70
l-14 -32 -17 22 c-37 46 -31 162 7 130 7 -6 19 -29 25 -50z m537 -87 c-5 -41
-24 -36 -48 13 -22 46 -29 103 -14 127 11 17 66 -106 62 -140z m412 72 c0 -19
-4 -34 -8 -34 -15 0 -45 78 -38 97 7 17 9 16 27 -6 10 -13 19 -38 19 -57z
m-1217 2 c-1 -49 -13 -64 -30 -41 -14 20 -17 62 -7 90 11 28 38 -8 37 -49z
m82 34 c19 -36 19 -70 1 -95 -13 -18 -14 -17 -30 13 -18 36 -20 65 -6 93 14
25 17 24 35 -11z m95 -35 c0 -18 -7 -38 -15 -45 -12 -10 -16 -8 -25 15 -5 14
-10 28 -10 30 0 2 5 16 10 30 9 23 13 25 25 15 8 -7 15 -27 15 -45z m264 23
c19 -27 20 -58 4 -93 -13 -30 -24 -32 -38 -6 -17 32 -9 121 11 121 4 0 15 -10
23 -22z m89 -10 c25 -53 30 -84 17 -109 -12 -22 -13 -22 -27 -4 -20 28 -34 91
-27 120 8 34 19 32 37 -7z m787 -60 c0 -35 -21 -27 -41 15 -14 28 -19 52 -15
63 6 16 11 13 32 -21 13 -22 24 -48 24 -57z m316 51 c16 -33 16 -80 -2 -86
-13 -4 -44 60 -44 91 0 46 21 43 46 -5z m-1276 -40 c0 -21 -4 -40 -9 -43 -21
-13 -46 51 -36 91 6 24 7 25 25 8 13 -12 20 -31 20 -56z m648 39 c14 -14 16
-68 4 -68 -5 0 -14 11 -20 25 -21 46 -12 71 16 43z m717 -19 c17 -32 17 -95 0
-93 -18 2 -47 73 -41 99 8 33 22 31 41 -6z m-625 2 c12 -23 14 -81 2 -81 -18
0 -32 26 -32 62 0 41 13 49 30 19z m315 -58 c3 -13 1 -31 -4 -40 -8 -14 -12
-12 -30 18 -11 19 -21 50 -21 69 l1 35 24 -29 c13 -17 26 -40 30 -53z m-775
25 c22 -35 24 -99 4 -105 -16 -5 -56 94 -49 118 9 27 22 24 45 -13z m255 2
c17 -33 20 -96 4 -105 -24 -16 -58 71 -44 114 9 29 22 26 40 -9z m291 -26 c18
-44 1 -66 -20 -26 -9 17 -16 38 -16 47 0 26 23 12 36 -21z m-1216 -36 c0 -15
-4 -28 -9 -28 -12 0 -21 26 -21 63 1 30 1 31 15 13 8 -11 15 -32 15 -48z m75
32 c21 -40 18 -110 -4 -110 -22 0 -39 87 -25 124 8 22 11 20 29 -14z m716 -45
c22 -48 24 -75 5 -101 -14 -18 -16 -16 -40 36 -26 55 -32 93 -19 126 6 16 7
15 21 -2 8 -10 23 -37 33 -59z m739 43 c21 -34 23 -89 4 -95 -14 -5 -44 67
-44 102 0 34 16 31 40 -7z m314 16 c3 -9 6 -32 6 -52 l0 -37 -20 30 c-11 17
-20 40 -20 53 0 25 25 30 34 6z m-1585 -40 c14 -39 9 -94 -7 -94 -11 0 -42 66
-42 90 0 29 11 51 24 47 6 -2 17 -21 25 -43z m1057 -21 c4 -21 2 -39 -5 -46
-14 -14 -54 73 -45 97 6 16 8 16 25 0 10 -9 22 -32 25 -51z m-1145 23 c9 -33
-6 -79 -24 -74 -13 5 -22 70 -13 95 9 22 29 11 37 -21z m189 -50 c0 -23 -6
-50 -13 -60 -13 -17 -14 -17 -25 10 -20 52 -23 79 -12 109 l12 30 19 -24 c12
-15 19 -39 19 -65z m670 18 c0 -38 -16 -36 -35 5 -21 48 -11 75 17 42 10 -13
18 -34 18 -47z m604 32 c18 -39 20 -74 6 -96 -19 -27 -50 24 -50 81 0 59 20
66 44 15z m-1104 -8 c23 -38 26 -106 7 -133 -13 -16 -15 -14 -35 27 -22 44
-28 91 -16 122 9 24 22 19 44 -16z m-90 -23 c8 -26 8 -39 -1 -56 -11 -22 -12
-22 -25 -4 -8 10 -14 35 -14 55 0 61 21 64 40 5z m1284 13 c17 -24 22 -98 7
-98 -19 0 -41 45 -41 82 0 43 12 48 34 16z m-620 -21 c6 -15 6 -30 2 -34 -10
-10 -36 26 -36 50 0 26 23 16 34 -16z m296 1 c21 -35 23 -69 4 -75 -12 -4 -44
65 -44 92 0 25 19 17 40 -17z m-761 -21 c22 -46 26 -83 12 -106 -13 -21 -28
-6 -46 50 -16 48 -14 99 4 99 5 0 19 -19 30 -43z m549 18 c14 -31 16 -82 2
-90 -12 -7 -40 47 -40 78 0 43 21 50 38 12z m-297 -31 c20 -43 20 -94 1 -94
-24 0 -54 115 -35 133 11 12 13 9 34 -39z m929 17 c13 -25 13 -91 0 -91 -12 0
-40 53 -40 78 0 35 23 43 40 13z m-1852 -30 c5 -47 -4 -67 -23 -51 -15 13 -21
71 -8 84 14 13 28 -1 31 -33z m87 -59 c-6 -26 -7 -26 -21 -7 -20 27 -28 61
-20 82 12 30 50 -40 41 -75z m1460 16 c6 -28 0 -48 -14 -48 -10 0 -41 66 -41
89 0 10 3 21 7 25 10 10 41 -33 48 -66z m-519 21 c12 -34 5 -70 -13 -76 -13
-5 -33 41 -33 76 0 53 29 54 46 0z m279 11 c8 -16 15 -39 15 -52 0 -20 -1 -21
-16 -7 -18 18 -36 89 -23 89 5 0 15 -13 24 -30z m-1060 -4 c18 -28 17 -107 -1
-113 -17 -6 -48 81 -40 112 8 31 21 32 41 1z m532 -22 c23 -39 32 -124 14
-124 -16 0 -61 102 -61 138 0 43 18 38 47 -14z m-613 3 c7 -18 6 -35 -4 -54
l-13 -28 -14 34 c-16 37 -10 85 10 78 7 -2 16 -15 21 -30z m1461 2 c17 -32 23
-84 11 -96 -14 -15 -39 28 -44 76 -5 59 9 68 33 20z m-1287 -4 c14 -31 16 -91
3 -99 -14 -9 -31 18 -38 58 -10 62 13 89 35 41z m92 6 c11 -22 13 -71 4 -95
-17 -45 -49 17 -39 76 7 42 19 48 35 19z m681 -19 c7 -17 6 -29 -1 -36 -14
-14 -30 10 -30 47 0 33 17 27 31 -11z m309 -53 c0 -39 -17 -45 -33 -12 -17 34
-28 88 -20 97 11 11 53 -57 53 -85z m-900 41 c21 -41 27 -95 10 -105 -11 -7
-50 66 -50 94 0 20 10 51 16 51 2 0 13 -18 24 -40z m1205 16 c18 -27 17 -107
-1 -113 -19 -6 -47 65 -39 103 7 40 19 43 40 10z m100 -42 c16 -35 14 -84 -4
-84 -11 0 -41 62 -41 83 0 24 11 47 20 42 4 -3 15 -21 25 -41z m-1865 17 c14
-28 12 -84 -4 -106 -13 -18 -14 -18 -25 3 -12 23 -14 64 -5 100 8 27 20 28 34
3z m676 -27 c18 -42 18 -95 1 -118 -12 -17 -15 -13 -35 34 -25 59 -27 82 -11
111 13 25 27 16 45 -27z m564 -20 c0 -13 -4 -24 -8 -24 -12 0 -32 47 -32 73
l1 22 19 -24 c11 -13 20 -34 20 -47z m80 26 c21 -41 25 -76 11 -98 -9 -16 -36
20 -47 62 -6 25 1 76 11 76 3 0 14 -18 25 -40z m-395 0 c17 -33 20 -110 4
-110 -5 0 -19 21 -31 46 -16 37 -18 51 -9 70 14 31 17 30 36 -6z m-835 -6 c13
-34 13 -71 -1 -80 -18 -10 -31 11 -36 60 -5 38 -3 46 11 46 9 0 21 -12 26 -26z
m1461 -34 c7 -21 9 -47 5 -57 -7 -16 -9 -14 -23 11 -21 39 -34 87 -27 98 10
15 33 -12 45 -52z m376 8 c-3 -7 -5 -2 -5 12 0 14 2 19 5 13 2 -7 2 -19 0 -25z
m-887 -47 c0 -14 -5 -33 -10 -41 -7 -12 -12 -7 -25 22 -16 40 -19 70 -8 82 12
12 43 -34 43 -63z m90 7 c0 -9 -5 -29 -10 -44 -10 -26 -11 -26 -25 -8 -17 23
-19 68 -4 96 11 21 12 21 25 -3 7 -13 13 -32 14 -41z m-957 18 c6 -19 6 -31
-2 -39 -15 -15 -21 -6 -28 38 -5 29 -3 37 7 33 8 -2 18 -17 23 -32z m82 -10
c17 -45 13 -90 -8 -83 -18 6 -40 73 -33 102 9 37 22 31 41 -19z m525 25 c5
-11 11 -33 13 -48 2 -16 7 -35 11 -42 10 -15 -1 -61 -14 -61 -6 0 -10 7 -10
15 0 9 -9 33 -20 55 -24 47 -27 100 -5 100 8 0 19 -9 25 -19z m-435 -21 c19
-36 19 -70 2 -94 -13 -17 -15 -16 -30 17 -20 41 -20 47 -7 81 12 33 16 33 35
-4z m1069 -9 c10 -21 16 -47 14 -57 -3 -15 -6 -14 -21 9 -21 32 -34 87 -20 87
6 0 18 -17 27 -39z m229 -4 c17 -34 16 -77 -2 -77 -12 0 -41 68 -41 96 0 35
19 26 43 -19z m-437 -2 c10 -25 12 -41 5 -53 -8 -14 -10 -15 -15 -2 -3 8 -10
28 -16 43 -9 26 -7 47 6 47 3 0 12 -16 20 -35z m-766 -47 c0 -41 -13 -49 -30
-19 -12 23 -13 74 -3 85 13 13 33 -27 33 -66z m106 -3 c3 -19 1 -43 -6 -56
-12 -22 -13 -22 -26 -4 -24 32 -34 84 -23 113 l11 27 18 -23 c11 -13 22 -38
26 -57z m1190 34 c17 -33 16 -80 -2 -86 -16 -5 -48 80 -39 106 8 26 20 20 41
-20z m94 2 c12 -24 13 -98 1 -105 -21 -14 -48 56 -37 99 8 30 21 32 36 6z
m-1770 -60 c0 -43 -10 -81 -20 -81 -11 0 -30 48 -30 75 0 13 5 36 11 52 10 27
11 27 25 9 8 -11 14 -36 14 -55z m850 -32 c0 -21 -5 -39 -11 -39 -17 0 -49 83
-42 110 l6 23 24 -27 c16 -18 23 -40 23 -67z m386 45 c16 -38 18 -54 6 -54
-12 0 -42 56 -42 80 0 29 19 16 36 -26z m218 21 c17 -26 22 -80 8 -89 -12 -7
-42 58 -42 89 0 32 13 32 34 0z m406 5 c14 -27 25 -110 14 -110 -17 0 -44 58
-44 94 0 40 13 47 30 16z m-1782 -39 c2 -18 1 -40 -3 -49 -10 -26 -25 5 -25
51 0 48 23 46 28 -2z m492 7 c23 -37 27 -92 8 -86 -20 6 -50 75 -43 98 8 27
12 26 35 -12z m778 -72 c-4 -42 -21 -42 -41 -1 -17 37 -22 86 -10 99 12 12 54
-67 51 -98z m-1438 53 c0 -10 -4 -19 -10 -19 -5 0 -10 12 -10 26 0 14 4 23 10
19 6 -3 10 -15 10 -26z m257 -43 c4 -29 2 -46 -5 -46 -15 0 -46 86 -38 106 11
30 37 -7 43 -60z m761 61 c16 -19 23 -61 13 -76 -16 -25 -41 6 -41 50 0 40 9
49 28 26z m632 -42 c7 -22 8 -40 2 -51 -9 -15 -11 -15 -25 7 -14 22 -21 54
-18 88 2 23 28 -6 41 -44z m-866 -7 c30 -60 32 -85 10 -116 -20 -29 -34 -28
-34 3 0 14 -7 42 -15 62 -22 52 -19 103 6 103 4 0 19 -23 33 -52z m336 -9 c0
-21 -4 -40 -9 -43 -18 -12 -42 80 -24 97 14 14 33 -17 33 -54z m90 32 c13 -33
10 -93 -6 -98 -23 -7 -43 72 -28 111 9 24 20 19 34 -13z m-880 -15 c0 -24 -16
-43 -26 -33 -8 7 7 57 17 57 5 0 9 -11 9 -24z m1405 -16 c17 -32 20 -66 6 -74
-14 -9 -32 21 -38 64 -7 48 9 54 32 10z m-441 -6 c10 -14 16 -39 14 -57 l-3
-31 -18 27 c-21 33 -34 87 -19 87 5 0 17 -11 26 -26z m221 -15 c9 -17 15 -40
13 -52 -3 -22 -3 -22 -20 3 -22 33 -33 80 -19 80 6 0 18 -14 26 -31z m310 1
c19 -37 19 -70 0 -70 -26 0 -48 73 -28 93 10 10 11 9 28 -23z m-929 -21 c22
-44 15 -83 -16 -87 -24 -3 -25 -1 -24 50 1 90 8 97 40 37z m-356 -33 c0 -22
-16 -54 -23 -46 -3 3 -12 23 -21 44 -13 31 -14 42 -4 53 10 13 15 12 30 -7 10
-12 18 -32 18 -44z m1388 9 c-4 -24 -33 -32 -41 -10 -4 8 -2 28 4 43 10 26 11
27 25 7 8 -11 13 -29 12 -40z m-1790 5 c4 -33 -11 -52 -33 -43 -10 3 -10 14
-2 44 11 47 31 46 35 -1z m495 5 c23 -48 21 -71 -5 -78 -23 -6 -48 8 -48 27 0
23 21 86 29 86 4 0 15 -16 24 -35z m-589 -8 c11 -30 4 -42 -19 -34 -19 8 -21
71 -2 65 6 -3 16 -17 21 -31z m172 -2 c18 -44 18 -45 -6 -45 -25 0 -34 21 -26
55 8 33 14 32 32 -10z m1392 10 c17 -37 15 -57 -5 -53 -13 2 -19 14 -21 41 -4
43 9 49 26 12z m-213 -37 c5 -18 3 -28 -4 -28 -14 0 -31 33 -31 61 0 20 2 21
14 9 8 -8 18 -27 21 -42z m-401 10 c11 -33 2 -60 -19 -52 -19 8 -22 88 -2 82
6 -3 16 -16 21 -30z m94 -28 c-2 -18 -10 -26 -27 -28 -22 -4 -23 -2 -16 35 4
21 9 42 12 47 10 15 34 -27 31 -54z m-788 9 c0 -20 -15 -26 -25 -9 -9 15 3 43
15 35 5 -3 10 -15 10 -26z m879 -1 c6 -17 9 -34 6 -37 -12 -11 -40 17 -43 43
-5 38 23 34 37 -6z m91 -15 c0 -7 -9 -13 -20 -13 -22 0 -23 3 -13 39 6 23 7
23 20 6 7 -11 13 -25 13 -32z m220 11 c0 -19 -21 -29 -30 -14 -4 7 -5 21 -3
31 4 15 8 17 19 8 8 -6 14 -17 14 -25z m-774 -11 c-11 -11 -19 6 -11 24 8 17
8 17 12 0 3 -10 2 -21 -1 -24z m971 15 c-3 -8 -6 -5 -6 6 -1 11 2 17 5 13 3
-3 4 -12 1 -19z"/>
<path d="M11262 1783 c-54 -26 -77 -68 -77 -140 0 -55 3 -66 27 -90 22 -21 39
-27 86 -31 139 -10 212 90 152 207 -34 67 -114 91 -188 54z m108 -58 c0 -16
-13 -34 -40 -56 -22 -18 -43 -43 -46 -56 -7 -28 -20 -29 -34 -4 -18 34 -11 78
16 110 21 25 33 31 65 31 35 0 39 -3 39 -25z m38 -74 c4 -28 -29 -67 -65 -76
-45 -11 -47 9 -6 58 41 49 66 56 71 18z"/>
<path d="M10044 3765 c-8 -19 -6 -20 24 -29 29 -9 31 19 2 34 -16 9 -22 8 -26
-5z"/>
<path d="M11720 3662 c0 -11 9 -27 20 -37 11 -10 20 -13 20 -7 0 7 -4 12 -10
12 -5 0 -10 11 -10 25 0 14 -4 25 -10 25 -5 0 -10 -8 -10 -18z"/>
<path d="M11760 3581 c0 -13 66 -149 80 -166 7 -8 9 -15 6 -15 -11 0 27 -59
41 -64 20 -8 15 10 -6 25 -11 8 -22 28 -24 44 -9 59 -97 219 -97 176z"/>
<path d="M11915 3258 c-8 -20 23 -79 45 -86 11 -4 10 0 -3 16 -11 11 -17 24
-14 29 3 5 -1 19 -8 33 -12 22 -14 23 -20 8z"/>
<path d="M11973 3100 c11 -57 80 -260 88 -260 4 0 5 -8 2 -18 -2 -10 5 -29 16
-43 16 -19 20 -21 21 -7 0 15 -36 126 -60 183 -5 11 -11 37 -15 58 -3 20 -10
37 -15 37 -6 0 -10 13 -10 29 0 16 -8 35 -17 42 -15 13 -16 11 -10 -21z"/>
<path d="M12094 2703 c29 -99 86 -320 86 -334 0 -10 4 -20 9 -23 4 -3 11 -28
15 -55 4 -28 12 -53 18 -57 14 -9 8 25 -39 216 -20 80 -39 147 -44 148 -5 2
-9 20 -9 40 0 52 -10 82 -27 82 -9 0 -12 -7 -9 -17z"/>
<path d="M12235 2150 c4 -6 11 -8 16 -5 14 9 11 15 -7 15 -8 0 -12 -5 -9 -10z"/>
<path d="M12245 2120 c-3 -5 -1 -10 4 -10 6 0 11 5 11 10 0 6 -2 10 -4 10 -3
0 -8 -4 -11 -10z"/>
<path d="M12350 1300 c0 -5 5 -10 10 -10 6 0 10 5 10 10 0 6 -4 10 -10 10 -5
0 -10 -4 -10 -10z"/>
<path d="M12360 1204 c0 -14 4 -23 10 -19 6 3 10 15 10 26 0 10 -4 19 -10 19
-5 0 -10 -12 -10 -26z"/>
<path d="M12365 1160 c3 -5 8 -10 11 -10 2 0 4 5 4 10 0 6 -5 10 -11 10 -5 0
-7 -4 -4 -10z"/>
<path d="M12380 780 c0 -11 5 -20 10 -20 6 0 10 9 10 20 0 11 -4 20 -10 20 -5
0 -10 -9 -10 -20z"/>
</g>
</svg>
